<svg xmlns="http://www.w3.org/2000/svg" viewBox="0 0 38.05 85.52"><defs><style>.cls-1{fill:#723710;}.cls-2{fill:#8fba8e;}.cls-2,.cls-3{stroke:#435640;stroke-width:0.25px;}.cls-2,.cls-3,.cls-4{stroke-miterlimit:10;}.cls-3,.cls-4{fill:none;}.cls-4{stroke:#723710;stroke-width:4px;}</style></defs><g id="Calque_2" data-name="Calque 2"><g id="Calque_2-2" data-name="Calque 2"><path class="cls-1" d="M8.37,82.94l3.89-60.27L13.35,5.74c.1-1.61-2.4-1.6-2.5,0L7,66,5.87,82.94c-.11,1.61,2.39,1.6,2.5,0Z"/><path class="cls-1" d="M11,58.27a116.22,116.22,0,0,1,9-17.18c1.69-2.66,3.5-5.23,5.35-7.78a41.83,41.83,0,0,0,4.91-8c.62-1.47-1.53-2.74-2.16-1.27a42.71,42.71,0,0,1-5,8.22c-1.91,2.61-3.75,5.25-5.47,8a119.54,119.54,0,0,0-9,17.39c-.62,1.48,1.8,2.13,2.41.67Z"/><path class="cls-2" d="M14,51.34s0-2.83,3.94-3.91,6.17.18,6.17.18-.74,3.72-3.83,4.69S16,52.63,14,51.34Z"/><path class="cls-3" d="M14,51.29S18.29,49.1,20.29,49"/><path class="cls-2" d="M20.3,38.89s0-2.84,3.93-3.91,6.17.18,6.17.18-.73,3.72-3.82,4.69S22.24,40.18,20.3,38.89Z"/><path class="cls-3" d="M20.29,38.83s4.26-2.18,6.27-2.27"/><path class="cls-2" d="M27.81,28.71s0-2.83,3.93-3.91,6.17.18,6.17.18-.73,3.72-3.82,4.69S29.75,30,27.81,28.71Z"/><path class="cls-3" d="M27.81,28.66s4.25-2.19,6.26-2.28"/><path class="cls-2" d="M22.26,33.58s2-2,.09-5.55-4.43-4.3-4.43-4.3-2.15,3.11-.71,6S20,33.08,22.26,33.58Z"/><path class="cls-3" d="M22.31,33.55S20.92,29,19.59,27.46"/><path class="cls-2" d="M12.26,15.31s-1-2.64,2.21-5.09,5.8-2.1,5.8-2.1.69,3.72-1.82,5.76S14.54,15.79,12.26,15.31Z"/><path class="cls-3" d="M12.23,15.26s3.16-3.6,5-4.43"/><path class="cls-2" d="M10.28,18.92s1.35-2.5-1.59-5.32-5.52-2.77-5.52-2.77S2.05,14.45,4.3,16.77,8,19.13,10.28,18.92Z"/><path class="cls-3" d="M10.31,18.87s-2.7-3.94-4.42-5"/><path class="cls-2" d="M7.51,52.43s1.35-2.5-1.59-5.32S.4,44.34.4,44.34-.72,48,1.53,50.28,5.19,52.63,7.51,52.43Z"/><path class="cls-3" d="M7.54,52.38s-2.7-4-4.42-5"/><path class="cls-2" d="M9.6,31.47s.94-1.76-1.12-3.74a6,6,0,0,0-3.87-1.94s-.78,2.54.8,4.17A4.22,4.22,0,0,0,9.6,31.47Z"/><path class="cls-3" d="M9.62,31.43a16.86,16.86,0,0,0-3.1-3.5"/><path class="cls-2" d="M10.49,41.13s-.73-1.59,1.21-3.22a5.33,5.33,0,0,1,3.52-1.49,4,4,0,0,1-.94,3.63A3.7,3.7,0,0,1,10.49,41.13Z"/><path class="cls-3" d="M10.48,41.1a14.58,14.58,0,0,1,2.94-2.9"/><path class="cls-2" d="M12.38,4.84s-.73-1.6,1.2-3.22A5.3,5.3,0,0,1,17.11.13a4.05,4.05,0,0,1-.94,3.63A3.7,3.7,0,0,1,12.38,4.84Z"/><path class="cls-3" d="M12.36,4.81a14.71,14.71,0,0,1,3-2.9"/><path class="cls-4" d="M9.21,58.31c0-3.58-2.35,28.58-2.07,24.92"/></g></g></svg>