<svg xmlns="http://www.w3.org/2000/svg" viewBox="0 0 186.44 276.11"><defs><style>.cls-1{fill:#723710;}.cls-2{fill:#8fba8e;}.cls-2,.cls-3{stroke:#435640;stroke-miterlimit:10;stroke-width:0.25px;}.cls-3{fill:none;}</style></defs><g id="Calque_2" data-name="Calque 2"><g id="Calque_2-2" data-name="Calque 2"><path class="cls-1" d="M82.74,271.1c0-27,1.53-54,3.28-80.94,1.75-26.79,3.69-53.57,4.45-80.41.43-15.13.47-30.27-.09-45.4a5,5,0,0,0-10,0c1,27,.05,54-1.49,80.92s-3.64,53.59-5,80.41c-.74,15.13-1.21,30.28-1.2,45.42a5,5,0,0,0,10,0Z"/><path class="cls-1" d="M85.3,168.89c9.21-11.38,19.45-21.86,29.48-32.5S134.56,115,142.85,103A131.69,131.69,0,0,0,154.9,81.82a1.93,1.93,0,0,0-.68-2.56,1.88,1.88,0,0,0-2.56.67c-5.82,13.07-14.07,24.84-23.26,35.75-9.37,11.14-19.64,21.48-29.55,32.12-5.58,6-11,12.08-16.2,18.44a1.93,1.93,0,0,0,0,2.65,1.88,1.88,0,0,0,2.65,0Z"/><path class="cls-1" d="M88.64,122.38q20.43-29,38.25-59.68,5-8.66,9.81-17.42c1.16-2.12-2.08-4-3.24-1.89Q116.45,74.5,96.72,104q-5.56,8.31-11.32,16.47c-1.4,2,1.85,3.85,3.24,1.9Z"/><path class="cls-1" d="M142.19,108.1a41.43,41.43,0,0,0,29-22.56c1-2.17-2.21-4.07-3.24-1.89a37.86,37.86,0,0,1-26.74,20.83c-2.36.47-1.36,4.08,1,3.62Z"/><path class="cls-1" d="M98.61,149.34c6,3.63,12.6,7.09,19.77,7.06,6,0,12-2.5,15.38-7.62,1.33-2-1.91-3.9-3.24-1.89-2.77,4.2-8,5.91-12.86,5.75-6.23-.19-12-3.38-17.16-6.54-2.07-1.25-4,2-1.89,3.24Z"/><path class="cls-1" d="M82.66,116.24q-22.41-28-42.36-57.89-5.69-8.51-11.16-17.13c-1.28-2-4.53-.15-3.23,1.89q19.47,30.71,41.52,59.67Q73.63,110.91,80,118.9a1.91,1.91,0,0,0,2.66,0,1.94,1.94,0,0,0,0-2.66Z"/><path class="cls-1" d="M46.57,64.36a148,148,0,0,0-9.64-34.54,2,2,0,0,0-2.31-1.31,1.9,1.9,0,0,0-1.31,2.31A147.55,147.55,0,0,1,43,65.36a1.88,1.88,0,0,0,2.3,1.31,1.92,1.92,0,0,0,1.31-2.31Z"/><path class="cls-1" d="M61.67,89.57a36,36,0,0,1-33-19.95c-1.05-2.17-4.29-.28-3.24,1.89A39.66,39.66,0,0,0,61.67,93.32c2.4-.08,2.41-3.83,0-3.75Z"/><path class="cls-1" d="M82.66,166q-26.44-29.65-54-58.26-7.78-8.07-15.66-16c-1.7-1.72-4.35.93-2.65,2.65Q38.21,122.61,65,152q7.56,8.29,15,16.66c1.61,1.8,4.26-.86,2.66-2.65Z"/><path class="cls-1" d="M32.15,110A108.29,108.29,0,0,0,23,88.11C21.81,86,18.57,87.89,19.75,90a103,103,0,0,1,8.79,21c.68,2.31,4.3,1.33,3.61-1Z"/><path class="cls-1" d="M46.1,129.12c-6.94-1.79-12.83-6-18.81-9.74a71.26,71.26,0,0,0-9.21-5.09c-2.76-1.21-6.44-2-8.27-4.64-1.38-2-4.64-.08-3.24,1.9,2.11,3,5.36,4.25,8.64,5.58a62.44,62.44,0,0,1,9.84,5.27c6.38,4,12.65,8.43,20.05,10.33,2.34.6,3.33-3,1-3.61Z"/><path class="cls-1" d="M68.31,147.13a132.39,132.39,0,0,0-7.54-31.77c-.83-2.24-4.46-1.27-3.61,1a128.77,128.77,0,0,1,7.4,30.77A1.93,1.93,0,0,0,66.44,149a1.89,1.89,0,0,0,1.87-1.87Z"/><path class="cls-2" d="M110.88,154.29s4.63-2.67,10.1,2.71,5.53,10.24,5.53,10.24-6.75,2.31-11.26-1.8S110.62,158.68,110.88,154.29Z"/><path class="cls-3" d="M110.74,154.53s10.64,6.19,13.63,10.42"/><path class="cls-2" d="M125.92,152.47s1.93-4,8.24-2.89S142.8,154,142.8,154s-3.57,4.78-8.61,4.07S127.8,155.62,125.92,152.47Z"/><path class="cls-3" d="M125.94,152.7s10.25-.74,14.3.76"/><path class="cls-2" d="M150.6,103.57s4.07-3.5,10.46.8,7.35,9.07,7.35,9.07-6.23,3.53-11.44.31S151.15,107.94,150.6,103.57Z"/><path class="cls-3" d="M150.51,103.82s11.64,4.15,15.36,7.76"/><path class="cls-2" d="M158.64,98.22s1.73-5,9.33-4.54,10.8,4.08,10.8,4.08-3.56,6.12-9.61,6S161.29,101.68,158.64,98.22Z"/><path class="cls-3" d="M158.69,98.48s12-2.27,17-1"/><path class="cls-2" d="M167.11,89s.57-5.18,8-6.37,11.23,1.56,11.23,1.56-2.08,6.64-7.91,7.8S170.4,91.72,167.11,89Z"/><path class="cls-3" d="M167.22,89.23s11-4.78,16-4.69"/><path class="cls-1" d="M123.31,125.06A27.68,27.68,0,0,1,126,100.29c1.31-2-1.93-3.91-3.24-1.9a31.28,31.28,0,0,0-3,27.67c.85,2.23,4.47,1.26,3.62-1Z"/><path class="cls-1" d="M116.57,80.81c10.31-3.57,21.26-7.64,27.43-17.26,1.3-2-1.94-3.92-3.24-1.9-5.59,8.72-15.88,12.32-25.19,15.54-2.27.79-1.29,4.41,1,3.62Z"/><path class="cls-1" d="M105.33,92.62a90,90,0,0,1,.49-21,2,2,0,0,0-1.31-2.31,1.9,1.9,0,0,0-2.31,1.31,94.24,94.24,0,0,0-.62,22,1.92,1.92,0,0,0,1.87,1.88,1.89,1.89,0,0,0,1.88-1.88Z"/><path class="cls-1" d="M126.32,59.41a41.24,41.24,0,0,1,1.55-21.77c.8-2.28-2.82-3.26-3.61-1A45,45,0,0,0,122.7,60.4c.48,2.37,4.09,1.37,3.62-1Z"/><path class="cls-1" d="M87.6,68.94a129.3,129.3,0,0,1,28.34-41.73,131.17,131.17,0,0,1,10.77-9.49,1.88,1.88,0,0,0,0-2.65,1.91,1.91,0,0,0-2.65,0A132.72,132.72,0,0,0,90.45,54.58,134.64,134.64,0,0,0,84,67.94a1.89,1.89,0,0,0,1.31,2.31,1.92,1.92,0,0,0,2.3-1.31Z"/><path class="cls-1" d="M86.31,67.5A86.93,86.93,0,0,0,62.93,27.84c-1.73-1.68-4.38,1-2.65,2.65a83.2,83.2,0,0,1,22.42,38c.62,2.32,4.24,1.33,3.61-1Z"/><path class="cls-1" d="M98.42,46.92a33.28,33.28,0,0,1,2.12-24c1.08-2.15-2.16-4.05-3.23-1.89A37.24,37.24,0,0,0,94.8,47.91c.67,2.32,4.29,1.33,3.62-1Z"/><path class="cls-1" d="M111.66,32.43c5-.14,9.9.74,14.83-.09a14.82,14.82,0,0,0,10-6c1.36-2-1.89-3.88-3.24-1.9-1.84,2.71-5.2,3.95-8.32,4.34-4.42.56-8.89-.25-13.32-.12-2.41.08-2.42,3.83,0,3.75Z"/><path class="cls-1" d="M71.94,33.6A48.08,48.08,0,0,0,68,10.35a1.88,1.88,0,0,0-2.56-.67,1.91,1.91,0,0,0-.67,2.56A44.41,44.41,0,0,1,68.19,33.6C68,36,71.73,36,71.94,33.6Z"/><path class="cls-1" d="M77.79,53A23.74,23.74,0,0,1,62.26,43.9a1.94,1.94,0,0,0-2.57-.67A1.89,1.89,0,0,0,59,45.8,27.37,27.37,0,0,0,76.79,56.64a1.94,1.94,0,0,0,2.31-1.3A1.89,1.89,0,0,0,77.79,53Z"/><path class="cls-1" d="M71.11,99.31a101.49,101.49,0,0,0-4.44-24.67c-.72-2.29-4.34-1.31-3.62,1a96.72,96.72,0,0,1,4.31,23.67c.13,2.4,3.89,2.41,3.75,0Z"/><path class="cls-2" d="M115.28,135.49s1-5.31,8.74-5.93,11.48,2.53,11.48,2.53-2.69,6.69-8.81,7.42S118.45,138.59,115.28,135.49Z"/><path class="cls-3" d="M115.37,135.75s11.76-4,17-3.54"/><path class="cls-2" d="M130.13,119.83s1-5.3,8.75-5.93,11.48,2.53,11.48,2.53-2.7,6.69-8.82,7.42S133.31,122.93,130.13,119.83Z"/><path class="cls-3" d="M130.22,120.09s11.77-4,17-3.54"/><path class="cls-2" d="M140.25,67.78s-.29-4.61,6-6.76,10-.32,10-.32-.82,6.11-5.73,8S143.53,69.68,140.25,67.78Z"/><path class="cls-3" d="M140.37,68s8.9-5.83,13.32-6.51"/><path class="cls-2" d="M129.54,74.64s1.7-5,9.26-4.54,10.75,4,10.75,4-3.52,6.1-9.53,6S132.18,78.06,129.54,74.64Z"/><path class="cls-3" d="M129.59,74.9s11.92-2.3,16.88-1.1"/><path class="cls-2" d="M119.57,79.27s2.92-3.8,9.3-1.22,8.1,6.59,8.1,6.59-4.81,4.23-10,2.37S120.85,83,119.57,79.27Z"/><path class="cls-3" d="M119.53,79.51s10.95,1.49,14.88,4"/><path class="cls-2" d="M109.78,90s1-5.33,8.79-6,11.54,2.54,11.54,2.54-2.7,6.73-8.86,7.46S113,93.09,109.78,90Z"/><path class="cls-3" d="M109.87,90.23s11.83-4.06,17.06-3.55"/><path class="cls-2" d="M100.79,103.16s-.41-5.27,6.72-7.86S119,94.73,119,94.73s-.81,7-6.4,9.28S104.59,105.26,100.79,103.16Z"/><path class="cls-3" d="M100.94,103.38s10.07-6.85,15.11-7.72"/><path class="cls-2" d="M90.18,119.55s-1.56-5.55,5.52-9.83,12.16-3,12.16-3,.62,7.66-4.88,11.27S94.69,121,90.18,119.55Z"/><path class="cls-3" d="M90.39,119.75s9.31-9.46,14.51-11.45"/><path class="cls-2" d="M100.08,147.5s-4.5-.82-5.09-7.37,2.07-9.73,2.07-9.73,5.69,2.23,6.35,7.41S102.68,144.79,100.08,147.5Z"/><path class="cls-3" d="M100.3,147.42s-3.5-9.93-3.11-14.34"/><path class="cls-2" d="M111.58,135.65s-4.5-.82-5.08-7.36,2.07-9.74,2.07-9.74,5.68,2.24,6.34,7.41S114.18,132.94,111.58,135.65Z"/><path class="cls-3" d="M111.8,135.58s-3.5-9.94-3.11-14.35"/><path class="cls-2" d="M118.65,118.81s-4,2.17-8.59-2.58-4.47-8.91-4.47-8.91,5.84-1.81,9.6,1.83S119,115.06,118.65,118.81Z"/><path class="cls-3" d="M118.77,118.62s-9-5.59-11.41-9.28"/><path class="cls-2" d="M117.89,106.48s-4.89-.81-5.65-7.88S114.3,88,114.3,88s6.2,2.32,7,7.91S120.66,103.5,117.89,106.48Z"/><path class="cls-3" d="M118.12,106.39s-4-10.7-3.63-15.48"/><path class="cls-2" d="M120.31,112.79s-2-4.55,3.49-9.1,10-4.14,10-4.14,1.49,6.48-2.76,10.26S124.35,113.45,120.31,112.79Z"/><path class="cls-3" d="M120.51,112.93s6.78-9.26,11-11.62"/><path class="cls-2" d="M155,99.64s-4.44-2.22-3.07-9.2S157,80.93,157,80.93s5.24,4,4.36,9.63S158.49,97.6,155,99.64Z"/><path class="cls-3" d="M155.22,99.62s-.65-11.4,1.09-15.87"/><path class="cls-2" d="M166.83,86.12s-4.43-2.21-3.07-9.19,5.09-9.51,5.09-9.51,5.24,4,4.37,9.63S170.36,84.09,166.83,86.12Z"/><path class="cls-3" d="M167.08,86.11s-.64-11.4,1.1-15.87"/><path class="cls-2" d="M143.24,95.28s-4.46-2.17-3.17-9.17,5-9.56,5-9.56,5.28,4,4.47,9.58S146.74,93.2,143.24,95.28Z"/><path class="cls-3" d="M143.49,95.26s-.77-11.39.92-15.88"/><path class="cls-2" d="M131.08,71.67s-4.17-2.93-1.7-9.83S136,53,136,53s4.71,4.92,3,10.47S135,70.14,131.08,71.67Z"/><path class="cls-3" d="M131.34,71.7s1.1-11.7,3.56-16"/><path class="cls-2" d="M132.36,51.51s-.28-4.61,6-6.77,10-.32,10-.32-.82,6.11-5.73,8S135.64,53.4,132.36,51.51Z"/><path class="cls-3" d="M132.48,51.7s8.9-5.83,13.32-6.51"/><path class="cls-2" d="M124.94,48.07s-1.94-4.19,3.11-8.49,9.23-4,9.23-4,1.47,6-2.41,9.55S128.7,48.63,124.94,48.07Z"/><path class="cls-3" d="M125.13,48.2s6.15-8.68,10-10.92"/><path class="cls-2" d="M123.56,48.55s-5,0-6.87-6.85.29-10.78.29-10.78,6.49,1.26,8.21,6.65S125.8,45.15,123.56,48.55Z"/><path class="cls-3" d="M123.78,48.43s-5.69-9.9-6.14-14.68"/><path class="cls-2" d="M118.46,70.36S114,68.2,115.29,61.2s5-9.56,5-9.56,5.28,4,4.47,9.58S122,68.29,118.46,70.36Z"/><path class="cls-3" d="M118.71,70.35s-.77-11.39.92-15.88"/><path class="cls-2" d="M94.42,108.16S90,106,91.25,99s5-9.57,5-9.57,5.29,4,4.47,9.58S97.92,106.08,94.42,108.16Z"/><path class="cls-3" d="M94.67,108.14s-.77-11.39.92-15.88"/><path class="cls-2" d="M103.19,93.4s-4,.71-6.52-4.57-1.29-8.76-1.29-8.76,5.44.11,7.59,4.22S104.52,90.34,103.19,93.4Z"/><path class="cls-3" d="M103.35,93.27s-6-7.2-7-11"/><path class="cls-2" d="M101.84,74.63s-4,.7-6.52-4.57S94,61.3,94,61.3s5.43.1,7.58,4.22S103.17,71.56,101.84,74.63Z"/><path class="cls-3" d="M102,74.5s-6-7.21-7-11"/><path class="cls-2" d="M106.39,82.6s-2.58-2.6,0-7.17S112.24,70,112.24,70s2.71,4.08.77,7.78S109.34,82,106.39,82.6Z"/><path class="cls-3" d="M106.57,82.65s2.24-8.14,4.52-10.86"/><path class="cls-2" d="M106.38,150s-.89-4.49,5-7.44,9.82-1.66,9.82-1.66,0,6.1-4.56,8.62S109.86,151.43,106.38,150Z"/><path class="cls-3" d="M106.54,150.18s7.95-6.91,12.19-8.17"/><path class="cls-2" d="M121.19,151.78s-2.1-4.07,2.73-8.52,9-4.31,9-4.31,1.7,5.87-2,9.55S124.93,152.18,121.19,151.78Z"/><path class="cls-3" d="M121.38,151.9s5.74-8.84,9.47-11.22"/><path class="cls-2" d="M122.59,14.75s1.3-4.43,7.93-4.34,9.56,3.1,9.56,3.1S137.24,19,132,19.1,125,17.64,122.59,14.75Z"/><path class="cls-3" d="M122.65,15S133,12.5,137.38,13.36"/><path class="cls-2" d="M132.45,26.77s1.92-4.2,8.47-3.14,9,4.44,9,4.44-3.6,5-8.83,4.36S134.45,30,132.45,26.77Z"/><path class="cls-3" d="M132.47,27s10.59-.95,14.81.53"/><path class="cls-2" d="M106.74,34.89s2.23-4,8.68-2.51,8.67,5.09,8.67,5.09-4,4.73-9.13,3.7S108.51,38.25,106.74,34.89Z"/><path class="cls-3" d="M106.75,35.13s10.63-.18,14.73,1.6"/><path class="cls-2" d="M98.52,48.06s0-4.62,6.41-6.37S115,42,115,42s-1.2,6-6.23,7.63S101.68,50.16,98.52,48.06Z"/><path class="cls-3" d="M98.64,48.26s9.25-5.26,13.7-5.65"/><path class="cls-2" d="M90.25,59.55s0-4.62,6.41-6.37,10,.31,10,.31-1.2,6-6.23,7.63S93.41,61.65,90.25,59.55Z"/><path class="cls-3" d="M90.37,59.75s9.24-5.26,13.7-5.65"/><path class="cls-2" d="M122.36,31.49s2.16-4.08,8.64-2.65,8.74,5,8.74,5-3.88,4.79-9.07,3.85S124.18,34.82,122.36,31.49Z"/><path class="cls-3" d="M122.37,31.72s10.63-.34,14.75,1.39"/><path class="cls-2" d="M98.33,28.19s-3.36-3.13-.26-8.91,7.1-7,7.1-7,3.59,4.95,1.3,9.63S102,27.33,98.33,28.19Z"/><path class="cls-3" d="M98.55,28.24s2.5-10.19,5.26-13.66"/><path class="cls-2" d="M70.81,20.43s-3.36-3.17-.26-9,7.1-7.11,7.1-7.11,3.59,5,1.3,9.76S74.5,19.56,70.81,20.43Z"/><path class="cls-3" d="M71,20.49s2.49-10.35,5.24-13.87"/><path class="cls-2" d="M71.26,34.7s-2.66-3.77,1.55-8.9,8.38-5.54,8.38-5.54,2.51,5.63-.68,9.82S75.05,34.59,71.26,34.7Z"/><path class="cls-3" d="M71.47,34.8S76,25.17,79.39,22.28"/><path class="cls-2" d="M77.27,47.88s-3.44-3.08-.51-9,6.9-7.31,6.9-7.31,3.73,4.91,1.57,9.72S80.94,46.91,77.27,47.88Z"/><path class="cls-3" d="M77.5,47.92s2.21-10.4,4.86-14"/><path class="cls-2" d="M83.38,60.23s-3.85-2.55-1.79-8.86,5.78-8.21,5.78-8.21,4.39,4.33,2.95,9.4S86.87,58.74,83.38,60.23Z"/><path class="cls-3" d="M83.61,60.24s.7-10.61,2.82-14.55"/><path class="cls-2" d="M113.85,27.76s-3.84-1.82-2.78-7.83,4.2-8.24,4.2-8.24,4.56,3.37,3.9,8.18S116.84,26,113.85,27.76Z"/><path class="cls-3" d="M114.07,27.75s-.75-9.76.66-13.63"/><path class="cls-2" d="M115.65,30.39s-1.33-4,3.75-7.43,8.86-2.65,8.86-2.65S129,26,125,28.79,119,31.3,115.65,30.39Z"/><path class="cls-3" d="M115.81,30.53s6.55-7.28,10.32-8.92"/><path class="cls-2" d="M94.06,29.54s-4.15-.92-4.48-7,2.25-9,2.25-9,5.2,2.26,5.64,7.09S96.56,27.1,94.06,29.54Z"/><path class="cls-3" d="M94.26,29.47s-2.92-9.34-2.4-13.42"/><path class="cls-2" d="M93.49,36.85s-4.23.35-6.35-5.37-.52-9.23-.52-9.23,5.64.61,7.49,5.1S95.16,33.78,93.49,36.85Z"/><path class="cls-3" d="M93.67,36.72s-5.56-8-6.28-12.1"/><path class="cls-2" d="M87.17,76.66s-2.87-3.14.38-8.31,7-6,7-6,3,4.85.52,9S90.61,76.11,87.17,76.66Z"/><path class="cls-3" d="M87.37,76.72s3-9.32,5.77-12.36"/><path class="cls-2" d="M87.17,95.53s-2.87-3.14.38-8.31,7-6,7-6,3,4.85.52,9S90.61,95,87.17,95.53Z"/><path class="cls-3" d="M87.37,95.59s3-9.32,5.77-12.36"/><path class="cls-2" d="M83.48,66.88S80,69.36,75.27,65.52s-5.17-7.67-5.17-7.67,5.17-2.35,9.05.55S83.34,63.39,83.48,66.88Z"/><path class="cls-3" d="M83.57,66.69S74.67,62.61,72,59.5"/><path class="cls-2" d="M84.1,84S80,85,77,79.73s-2-9-2-9,5.66-.32,8.23,3.8S85.24,80.68,84.1,84Z"/><path class="cls-3" d="M84.25,83.83s-6.81-7-8.19-10.91"/><path class="cls-2" d="M83.49,104.9s-4.2.63-6.69-5-1.11-9.18-1.11-9.18,5.67.25,7.81,4.61S85,101.73,83.49,104.9Z"/><path class="cls-3" d="M83.66,104.76s-6.07-7.68-7-11.67"/><path class="cls-2" d="M68.14,24.66s-4,1.49-7.57-3.45-3-8.75-3-8.75,5.6-.93,8.59,2.88S68.92,21.25,68.14,24.66Z"/><path class="cls-3" d="M68.28,24.49S60.75,18.24,59,14.54"/><path class="cls-2" d="M66.58,36.5s-2.65,3.32-8.26.92-7.06-6-7.06-6,4.33-3.67,8.86-1.93S65.51,33.18,66.58,36.5Z"/><path class="cls-3" d="M66.61,36.29s-9.67-1.51-13.1-3.78"/><path class="cls-2" d="M72,41.56s-2.65,3.32-8.26.91-7.06-6-7.06-6,4.33-3.67,8.86-1.92S70.88,38.23,72,41.56Z"/><path class="cls-3" d="M72,41.34s-9.67-1.51-13.1-3.77"/><path class="cls-2" d="M66.93,49.31s-1.74,3.88-7.78,3-8.32-4-8.32-4,3.28-4.64,8.09-4.08S65.06,46.37,66.93,49.31Z"/><path class="cls-3" d="M66.91,49.1s-9.75.95-13.64-.38"/><path class="cls-2" d="M91.14,157.41S87,156.3,87,150.19s2.69-8.85,2.69-8.85,5.08,2.52,5.28,7.37S93.77,155.11,91.14,157.41Z"/><path class="cls-3" d="M91.35,157.36s-2.45-9.48-1.74-13.53"/><path class="cls-2" d="M82.67,127.48s-3.72,2.06-8-2.3S70.43,117,70.43,117s5.4-1.74,8.93,1.6S82.94,124,82.67,127.48Z"/><path class="cls-3" d="M82.78,127.3s-8.37-5.08-10.68-8.48"/><path class="cls-2" d="M82.67,140.82s-3.72,2.06-8-2.3-4.25-8.22-4.25-8.22,5.4-1.74,8.93,1.6S82.94,137.34,82.67,140.82Z"/><path class="cls-3" d="M82.78,140.64s-8.37-5.09-10.68-8.49"/><path class="cls-2" d="M82.13,154.62s-3.72,2.06-8-2.3-4.24-8.22-4.24-8.22,5.4-1.74,8.92,1.6S82.4,151.14,82.13,154.62Z"/><path class="cls-3" d="M82.24,154.44s-8.37-5.08-10.68-8.48"/><path class="cls-2" d="M86.11,133.63s-1.73-3.88,3-7.76,8.55-3.51,8.55-3.51,1.27,5.54-2.37,8.75S89.55,134.21,86.11,133.63Z"/><path class="cls-3" d="M86.28,133.76s5.79-7.89,9.38-9.9"/><path class="cls-2" d="M80.55,118.47s-2.57,3.38-8.24,1.12-7.21-5.79-7.21-5.79,4.24-3.78,8.81-2.15S79.39,115.17,80.55,118.47Z"/><path class="cls-3" d="M80.57,118.25s-9.71-1.26-13.2-3.43"/><path class="cls-2" d="M74.61,109.72s-2.13,3.68-8,2.13S58.71,107,58.71,107s3.74-4.26,8.48-3.21S73.06,106.6,74.61,109.72Z"/><path class="cls-3" d="M74.61,109.51s-9.79-.06-13.52-1.79"/><path class="cls-2" d="M47.29,89.75s-.93,4.15-7,4.45-9-2.26-9-2.26,2.28-5.2,7.11-5.63S44.86,87.24,47.29,89.75Z"/><path class="cls-3" d="M47.22,89.54s-9.35,2.9-13.43,2.38"/><path class="cls-2" d="M39.58,85s-1.42,4-7.51,3.57-8.62-3.34-8.62-3.34,2.89-4.88,7.73-4.72S37.48,82.25,39.58,85Z"/><path class="cls-3" d="M39.54,84.83s-9.63,1.74-13.62.72"/><path class="cls-2" d="M28.35,77.17s-3.25,2.74-8.28-.71-5.76-7.24-5.76-7.24,5-2.76,9.06-.17S27.94,73.7,28.35,77.17Z"/><path class="cls-3" d="M28.42,77S19.23,73.6,16.3,70.71"/><path class="cls-2" d="M36.28,78.64s-3.83-.06-5.32-5.38.2-8.32.2-8.32,5,1.07,6.37,5.26S38,76.05,36.28,78.64Z"/><path class="cls-3" d="M36.45,78.55S32,70.83,31.68,67.14"/><path class="cls-2" d="M45.88,86.72s-3.83-.07-5.32-5.39.2-8.31.2-8.31,5,1.07,6.36,5.25S47.6,84.13,45.88,86.72Z"/><path class="cls-3" d="M46,86.63s-4.41-7.73-4.77-11.42"/><path class="cls-2" d="M39.84,38.27s-3.41-1.76-2.39-7.18,3.87-7.37,3.87-7.37,4,3.19,3.37,7.53S42.53,36.71,39.84,38.27Z"/><path class="cls-3" d="M40,38.26s-.54-8.88.78-12.34"/><path class="cls-2" d="M41.44,48.2s-2.45-3,.61-7.55,6.43-5.27,6.43-5.27,2.47,4.5.17,8.25S44.53,47.81,41.44,48.2Z"/><path class="cls-3" d="M41.62,48.26s3-8.38,5.53-11.06"/><path class="cls-2" d="M44.79,58.51s-2.45-2.94.61-7.54,6.43-5.28,6.43-5.28,2.47,4.51.17,8.25S47.88,58.13,44.79,58.51Z"/><path class="cls-3" d="M45,58.58s3-8.39,5.53-11.06"/><path class="cls-2" d="M49.89,72.07s-3.27-2-1.87-7.34,4.38-7.07,4.38-7.07,3.79,3.47,2.83,7.75S52.68,70.7,49.89,72.07Z"/><path class="cls-3" d="M50.08,72.07s.1-8.89,1.66-12.26"/><path class="cls-2" d="M35.76,51.93S32,51.47,31,46s1.06-8.25,1.06-8.25,4.89,1.57,5.79,5.87S37.74,49.53,35.76,51.93Z"/><path class="cls-3" d="M35.93,51.85S32.33,43.72,32.36,40"/><path class="cls-2" d="M59,84.24s-3.81-.34-4.92-5.76.79-8.27.79-8.27,4.94,1.42,6,5.69S60.9,81.77,59,84.24Z"/><path class="cls-3" d="M59.17,84.15s-3.86-8-4-11.72"/><path class="cls-2" d="M67.69,84.78s-2.54-2.88.38-7.57,6.27-5.46,6.27-5.46,2.6,4.43.42,8.24S70.76,84.3,67.69,84.78Z"/><path class="cls-3" d="M67.87,84.83s2.71-8.47,5.2-11.22"/><path class="cls-2" d="M68.5,96.44s-1.91-3.32,1.88-7.33S77.62,85,77.62,85s1.66,4.86-1.24,8.16S71.61,96.59,68.5,96.44Z"/><path class="cls-3" d="M68.67,96.54S73,88.78,76,86.58"/><path class="cls-2" d="M65.07,88.92s-4.2.63-6.69-4.94-1.11-9.19-1.11-9.19,5.67.26,7.81,4.61S66.54,85.75,65.07,88.92Z"/><path class="cls-3" d="M65.24,88.78s-6.07-7.68-7-11.67"/><path class="cls-2" d="M54.49,84.44s-3.35,2.61-8.25-1-5.47-7.46-5.47-7.46,5.07-2.55,9.06.19S54.22,81,54.49,84.44Z"/><path class="cls-3" d="M54.57,84.24s-9-3.73-11.87-6.73"/><path class="cls-2" d="M45.94,69.18s-2.25,3.6-8.1,1.86-7.7-5.13-7.7-5.13S34,61.77,38.72,63,44.5,66,45.94,69.18Z"/><path class="cls-3" d="M46,69s-9.78-.39-13.45-2.24"/><path class="cls-2" d="M36.79,58.57s-2.88,3.12-8.31.33-6.61-6.47-6.61-6.47,4.58-3.35,9-1.29S36,55.18,36.79,58.57Z"/><path class="cls-3" d="M36.84,58.36s-9.55-2.2-12.81-4.7"/><path class="cls-2" d="M28.93,47.9s-3.5,2.42-8.18-1.5-5-7.76-5-7.76,5.2-2.26,9,.71S28.85,44.41,28.93,47.9Z"/><path class="cls-3" d="M29,47.71s-8.83-4.23-11.47-7.39"/><path class="cls-2" d="M37.12,38.92s-3.43,2.51-8.22-1.28S23.66,30,23.66,30s5.14-2.41,9.05.46S37,35.43,37.12,38.92Z"/><path class="cls-3" d="M37.21,38.72s-8.94-4-11.66-7.07"/><path class="cls-2" d="M27.22,97.45s-3.83-1.84-2.76-7.85,4.23-8.22,4.23-8.22,4.55,3.39,3.88,8.19S30.21,95.65,27.22,97.45Z"/><path class="cls-3" d="M27.43,97.43s-.71-9.77.72-13.62"/><path class="cls-2" d="M30.16,108.42s-2.84-3.16.45-8.3,7-6,7-6,2.91,4.87.45,9S33.62,107.91,30.16,108.42Z"/><path class="cls-3" d="M30.37,108.49s3.07-9.3,5.87-12.31"/><path class="cls-2" d="M41.86,120.91s-4.16-.86-4.57-7,2.11-9,2.11-9,5.24,2.19,5.74,7S44.33,118.44,41.86,120.91Z"/><path class="cls-3" d="M42.07,120.84s-3.06-9.3-2.61-13.39"/><path class="cls-2" d="M50.7,131s-4.17-.85-4.58-6.94,2.11-9,2.11-9,5.24,2.19,5.75,7S53.16,128.56,50.7,131Z"/><path class="cls-3" d="M50.9,131s-3.06-9.3-2.6-13.39"/><path class="cls-2" d="M58.63,141.05s-4.16-.85-4.58-6.94,2.12-9,2.12-9,5.23,2.19,5.74,7S61.1,138.58,58.63,141.05Z"/><path class="cls-3" d="M58.83,141s-3-9.3-2.6-13.39"/><path class="cls-2" d="M63,125.14s-3.52-2.38-1.57-8.17,5.4-7.5,5.4-7.5,4,4,2.62,8.67S66.17,123.81,63,125.14Z"/><path class="cls-3" d="M63.16,125.16s.74-9.77,2.73-13.37"/><path class="cls-2" d="M65.07,133.65s-3.07-2.94-.18-8.31,6.58-6.5,6.58-6.5,3.27,4.64,1.13,9S68.47,132.87,65.07,133.65Z"/><path class="cls-3" d="M65.28,133.7s2.36-9.5,4.92-12.72"/><path class="cls-2" d="M67.73,148.07s-3.07-2.94-.18-8.32,6.58-6.5,6.58-6.5,3.27,4.64,1.13,9S71.13,147.29,67.73,148.07Z"/><path class="cls-3" d="M67.93,148.12s2.37-9.5,4.93-12.72"/><path class="cls-2" d="M60.51,126.45s-3.71,2.07-8-2.27-4.27-8.2-4.27-8.2,5.39-1.76,8.93,1.56S60.77,123,60.51,126.45Z"/><path class="cls-3" d="M60.62,126.27s-8.39-5-10.71-8.45"/><path class="cls-2" d="M25.19,97.45s-2.89,3.12-8.31.32-6.6-6.48-6.6-6.48,4.59-3.35,9-1.28S24.36,94.06,25.19,97.45Z"/><path class="cls-3" d="M25.24,97.24S15.7,95,12.44,92.52"/><path class="cls-2" d="M18.44,100.33s-1.84,3.83-7.85,2.75-8.22-4.25-8.22-4.25,3.4-4.54,8.2-3.86S16.65,97.34,18.44,100.33Z"/><path class="cls-3" d="M18.42,100.12s-9.76.7-13.61-.74"/><path class="cls-2" d="M25.77,108.37s-1.84,3.83-7.85,2.75-8.22-4.25-8.22-4.25,3.4-4.54,8.2-3.86S24,105.37,25.77,108.37Z"/><path class="cls-3" d="M25.75,108.16s-9.76.69-13.62-.74"/><path class="cls-2" d="M33.27,116.76s-1.84,3.83-7.85,2.74-8.22-4.24-8.22-4.24,3.4-4.55,8.21-3.86S31.48,113.76,33.27,116.76Z"/><path class="cls-3" d="M33.26,116.54s-9.77.7-13.62-.74"/><path class="cls-2" d="M16.22,119.07s-1.84,3.83-7.85,2.75S.15,117.57.15,117.57s3.4-4.54,8.2-3.86S14.43,116.07,16.22,119.07Z"/><path class="cls-3" d="M16.2,118.85s-9.76.7-13.61-.73"/><path class="cls-2" d="M27.83,123.36s-.76,4.39-7.14,5-9.52-1.9-9.52-1.9,2.12-5.56,7.17-6.26S25.16,120.86,27.83,123.36Z"/><path class="cls-3" d="M27.75,123.15s-9.66,3.52-14,3.19"/><path class="cls-2" d="M39.71,131.34s-1.1,4.11-7.21,4.15-8.86-2.66-8.86-2.66,2.51-5.1,7.35-5.31S37.4,128.73,39.71,131.34Z"/><path class="cls-3" d="M39.66,131.14s-9.47,2.48-13.53,1.78"/><path class="cls-2" d="M53.29,139.19s-1.85,3.83-7.85,2.75-8.22-4.25-8.22-4.25,3.4-4.54,8.2-3.86S51.49,136.19,53.29,139.19Z"/><path class="cls-3" d="M53.27,139s-9.77.69-13.62-.74"/><path class="cls-2" d="M63.71,147.91s-1.63,3.93-7.68,3.19-8.45-3.77-8.45-3.77,3.14-4.73,8-4.32S61.75,145,63.71,147.91Z"/><path class="cls-3" d="M63.68,147.7S54,149,50,147.74"/><path class="cls-2" d="M77.72,163.9s-1.84,3.83-7.85,2.75-8.21-4.25-8.21-4.25,3.4-4.54,8.2-3.86S75.93,160.9,77.72,163.9Z"/><path class="cls-3" d="M77.71,163.69s-9.77.69-13.62-.74"/><path class="cls-2" d="M88.62,164.19s1-5.31,8.74-5.94,11.48,2.53,11.48,2.53-2.69,6.7-8.81,7.42S91.79,167.28,88.62,164.19Z"/><path class="cls-3" d="M88.7,164.44s11.77-4,17-3.53"/><path class="cls-2" d="M37.17,126.89s-5.31,1-8.7-6-1.81-11.61-1.81-11.61,7.21.08,10.11,5.51S38.9,122.81,37.17,126.89Z"/><path class="cls-3" d="M37.38,126.72s-8-9.5-9.46-14.53"/><path class="cls-2" d="M16.16,112.84s-4.07,1.92-8.28-3-3.93-9-3.93-9,5.83-1.46,9.32,2.3S16.69,109.18,16.16,112.84Z"/><path class="cls-3" d="M16.29,112.66s-8.49-6-10.7-9.7"/><path class="cls-2" d="M95.14,156.58s1-5.3,8.74-5.93,11.48,2.53,11.48,2.53-2.69,6.69-8.81,7.42S98.32,159.68,95.14,156.58Z"/><path class="cls-3" d="M95.23,156.84s11.76-4,17-3.54"/><path class="cls-2" d="M119.61,128.46s1-5.31,8.74-5.94,11.48,2.53,11.48,2.53-2.69,6.7-8.81,7.43S122.79,131.55,119.61,128.46Z"/><path class="cls-3" d="M119.7,128.71s11.76-4,17-3.53"/><path class="cls-2" d="M136.36,111.25s1-5.31,8.75-5.94,11.48,2.53,11.48,2.53-2.7,6.69-8.82,7.42S139.54,114.34,136.36,111.25Z"/><path class="cls-3" d="M136.45,111.5s11.77-4,17-3.53"/><path class="cls-2" d="M108.52,141.6s1-5.31,8.74-5.94,11.48,2.54,11.48,2.54-2.69,6.69-8.81,7.42S111.69,144.7,108.52,141.6Z"/><path class="cls-3" d="M108.6,141.86s11.77-4.05,17-3.54"/><path class="cls-2" d="M72.57,155.67s-1.79,3.85-7.81,2.85-8.27-4.14-8.27-4.14,3.34-4.59,8.15-4S70.74,152.7,72.57,155.67Z"/><path class="cls-3" d="M72.55,155.45s-9.75.83-13.62-.55"/><path class="cls-2" d="M56.67,142.59s-1.84,3.83-7.85,2.74-8.22-4.24-8.22-4.24,3.4-4.55,8.21-3.86S54.88,139.59,56.67,142.59Z"/><path class="cls-3" d="M56.66,142.37s-9.77.7-13.62-.73"/><path class="cls-2" d="M46.22,133.89s-1.84,3.83-7.84,2.75-8.22-4.25-8.22-4.25,3.4-4.54,8.2-3.86S44.43,130.89,46.22,133.89Z"/><path class="cls-3" d="M46.21,133.68s-9.77.69-13.62-.74"/><path class="cls-2" d="M31.15,124.12s.13,4.25-5.7,6.06-9.25,0-9.25,0,.92-5.6,5.5-7.21S28.18,122.29,31.15,124.12Z"/><path class="cls-3" d="M31,123.94s-8.35,5.12-12.43,5.62"/><path class="cls-2" d="M20,119.52s-.47,4.23-6.5,5.19-9.16-1.3-9.16-1.3S6,118,10.77,117.06,17.28,117.29,20,119.52Z"/><path class="cls-3" d="M19.88,119.33s-9,3.88-13.1,3.8"/><path class="cls-2" d="M76.91,160s-3.92-1.64-3.15-7.7,3.8-8.43,3.8-8.43,4.72,3.16,4.29,8S79.81,158.07,76.91,160Z"/><path class="cls-3" d="M77.13,160s-1.21-9.72,0-13.64"/><path class="cls-2" d="M66.27,142.78s-3.07-2.94-.18-8.32,6.58-6.5,6.58-6.5,3.27,4.64,1.14,9S69.68,142,66.27,142.78Z"/><path class="cls-3" d="M66.48,142.83s2.36-9.5,4.92-12.72"/><path class="cls-2" d="M32.51,114.5s-3.07-2.93-.18-8.31,6.58-6.5,6.58-6.5,3.27,4.64,1.14,9S35.92,113.73,32.51,114.5Z"/><path class="cls-3" d="M32.72,114.56s2.36-9.51,4.92-12.73"/><path class="cls-2" d="M28.26,104.45s-3.07-2.93-.18-8.31,6.58-6.5,6.58-6.5,3.27,4.64,1.13,9S31.66,103.68,28.26,104.45Z"/><path class="cls-3" d="M28.47,104.51S30.83,95,33.39,91.79"/><path class="cls-2" d="M47.48,65.62s-3.07-2.94-.18-8.31,6.58-6.5,6.58-6.5,3.27,4.64,1.13,9S50.88,64.85,47.48,65.62Z"/><path class="cls-3" d="M47.69,65.67s2.36-9.5,4.92-12.72"/><path class="cls-2" d="M43.73,53.31s-3.07-2.94-.18-8.31,6.59-6.5,6.59-6.5,3.26,4.64,1.13,9S47.14,52.54,43.73,53.31Z"/><path class="cls-3" d="M43.94,53.36s2.37-9.5,4.92-12.72"/><path class="cls-2" d="M40.24,43.5s-3.07-2.94-.18-8.31,6.58-6.5,6.58-6.5,3.27,4.64,1.13,9S43.64,42.73,40.24,43.5Z"/><path class="cls-3" d="M40.45,43.55s2.36-9.5,4.92-12.72"/><path class="cls-2" d="M38,35S34,36.54,30.32,31.7,27.09,23,27.09,23s5.57-1.07,8.67,2.66S38.66,31.53,38,35Z"/><path class="cls-3" d="M38.1,34.78s-7.69-6.05-9.58-9.71"/><path class="cls-2" d="M40.42,51.09s-3.94,1.6-7.65-3.24-3.23-8.67-3.23-8.67,5.58-1.08,8.67,2.66S41.11,47.67,40.42,51.09Z"/><path class="cls-3" d="M40.55,50.93S32.86,44.87,31,41.22"/><path class="cls-2" d="M29.51,55.49s-3.94,1.6-7.66-3.25-3.22-8.66-3.22-8.66,5.57-1.08,8.67,2.66S30.2,52.07,29.51,55.49Z"/><path class="cls-3" d="M29.64,55.33S22,49.27,20.06,45.61"/><path class="cls-2" d="M44,61.17S40,62.76,36.29,57.92s-3.22-8.67-3.22-8.67,5.57-1.08,8.67,2.66S44.64,57.75,44,61.17Z"/><path class="cls-3" d="M44.08,61s-7.69-6-9.58-9.71"/><path class="cls-2" d="M38.63,67.2S34.69,68.8,31,64s-3.22-8.67-3.22-8.67,5.57-1.07,8.67,2.67S39.32,63.78,38.63,67.2Z"/><path class="cls-3" d="M38.76,67S31.07,61,29.18,57.32"/><path class="cls-2" d="M50.61,82.19s-3.94,1.6-7.66-3.25-3.22-8.67-3.22-8.67,5.57-1.07,8.67,2.66S51.3,78.77,50.61,82.19Z"/><path class="cls-3" d="M50.74,82s-7.69-6-9.58-9.71"/><path class="cls-2" d="M33.24,80.72s-2,3.76-7.94,2.47-8.06-4.52-8.06-4.52,3.55-4.43,8.32-3.58S31.55,77.66,33.24,80.72Z"/><path class="cls-3" d="M33.23,80.5s-9.78.36-13.58-1.2"/><path class="cls-2" d="M43.73,124.68s-3.07-2.93-.18-8.31,6.59-6.5,6.59-6.5,3.26,4.64,1.13,9S47.14,123.91,43.73,124.68Z"/><path class="cls-3" d="M43.94,124.73s2.37-9.5,4.92-12.72"/><path class="cls-2" d="M50.67,77.13s-3.08-2.94-.18-8.32,6.58-6.5,6.58-6.5,3.27,4.64,1.13,9S54.07,76.35,50.67,77.13Z"/><path class="cls-3" d="M50.87,77.18s2.37-9.5,4.93-12.72"/><path class="cls-2" d="M73.18,42.08s-3.07-2.93-.18-8.31,6.58-6.5,6.58-6.5,3.27,4.64,1.13,9S76.58,41.31,73.18,42.08Z"/><path class="cls-3" d="M73.38,42.14s2.37-9.51,4.93-12.73"/><path class="cls-2" d="M70.24,26s-3.07-2.94-.18-8.31,6.58-6.5,6.58-6.5,3.27,4.64,1.13,9S73.64,25.19,70.24,26Z"/><path class="cls-3" d="M70.45,26s2.36-9.5,4.92-12.72"/><path class="cls-2" d="M80.56,53.07s-3.07-2.94-.18-8.31S87,38.26,87,38.26s3.27,4.64,1.13,9S84,52.3,80.56,53.07Z"/><path class="cls-3" d="M80.77,53.12s2.36-9.5,4.92-12.72"/><path class="cls-2" d="M93.7,54.16S92.65,50.05,98,47s9-2,9-2,.32,5.67-3.79,8.24S97,55.3,93.7,54.16Z"/><path class="cls-3" d="M93.85,54.32s7-6.82,10.9-8.2"/><path class="cls-2" d="M103.55,39.84s.21-4.24,6.17-5.57,9.22.74,9.22.74-1.37,5.5-6.07,6.73S106.36,41.91,103.55,39.84Z"/><path class="cls-3" d="M103.64,40s8.74-4.42,12.85-4.59"/><path class="cls-2" d="M119.5,22.34s-.19-4.25,5.61-6.14,9.25-.14,9.25-.14-.84,5.61-5.4,7.28S122.49,24.13,119.5,22.34Z"/><path class="cls-3" d="M119.61,22.52s8.28-5.24,12.35-5.79"/><path class="cls-2" d="M127.82,59.12S126.76,55,132.06,52s9-2,9-2,.32,5.67-3.79,8.23S131.11,60.26,127.82,59.12Z"/><path class="cls-3" d="M128,59.28s7-6.82,10.91-8.2"/><path class="cls-2" d="M122.63,67.31s-1-4.12,4.24-7.15,9-2,9-2,.33,5.66-3.79,8.23S125.93,68.45,122.63,67.31Z"/><path class="cls-3" d="M122.78,67.46s7-6.81,10.9-8.2"/><path class="cls-2" d="M118,76.53s-1-4.12,4.24-7.15,9-2,9-2,.32,5.66-3.8,8.23S121.28,77.67,118,76.53Z"/><path class="cls-3" d="M118.13,76.68s7-6.82,10.9-8.2"/><path class="cls-2" d="M71.4,109.52s-1.06-4.11,4.24-7.15,9-2,9-2,.33,5.67-3.79,8.23S74.7,110.66,71.4,109.52Z"/><path class="cls-3" d="M71.55,109.68s7-6.82,10.9-8.2"/><path class="cls-2" d="M99.82,108.67s-1-4.12,4.24-7.15,9-2,9-2,.32,5.66-3.8,8.23S103.12,109.81,99.82,108.67Z"/><path class="cls-3" d="M100,108.82s7-6.81,10.9-8.19"/><path class="cls-2" d="M84,139.7s-1.06-4.11,4.24-7.15,9-2,9-2,.32,5.67-3.79,8.24S87.32,140.84,84,139.7Z"/><path class="cls-3" d="M84.17,139.86s7-6.82,10.9-8.2"/><path class="cls-2" d="M84,148.11S83,144,88.26,141s9-2,9-2,.32,5.66-3.79,8.23S87.32,149.25,84,148.11Z"/><path class="cls-3" d="M84.17,148.26s7-6.81,10.9-8.2"/><path class="cls-2" d="M72.63,106.06s-3.26-2.74-.71-8.29,6.16-6.9,6.16-6.9,3.55,4.42,1.7,8.9S76,105.07,72.63,106.06Z"/><path class="cls-3" d="M72.84,106.1s1.75-9.64,4.1-13"/><path class="cls-2" d="M70.05,91.73s-3.25-2.74-.7-8.29,6.15-6.9,6.15-6.9,3.56,4.42,1.7,8.91S73.4,90.74,70.05,91.73Z"/><path class="cls-3" d="M70.26,91.77s1.76-9.63,4.11-13"/><path class="cls-2" d="M164.09,93.56s-.26-4.24,5.51-6.22,9.25-.3,9.25-.3-.75,5.63-5.28,7.37S167.11,95.3,164.09,93.56Z"/><path class="cls-3" d="M164.21,93.74s8.18-5.37,12.25-6"/><path class="cls-2" d="M156.39,101.19s2.26-4.21,8.94-2.71,9,5.17,9,5.17-4,4.93-9.39,3.93S158.26,104.64,156.39,101.19Z"/><path class="cls-3" d="M156.4,101.43s11-.31,15.25,1.49"/><path class="cls-2" d="M161.92,94.7s-4.43-2.21-3.06-9.2S164,76,164,76s5.24,4,4.36,9.63S165.45,92.66,161.92,94.7Z"/><path class="cls-3" d="M162.17,94.69s-.64-11.4,1.1-15.87"/><path class="cls-2" d="M148.35,104s-4.43-2.21-3.06-9.2,5.09-9.51,5.09-9.51,5.24,4,4.36,9.63S151.88,102,148.35,104Z"/><path class="cls-3" d="M148.6,104s-.64-11.39,1.1-15.86"/><path class="cls-2" d="M148.91,87.9s-4.44-2.21-3.07-9.2,5.09-9.5,5.09-9.5,5.24,4,4.36,9.62S152.43,85.87,148.91,87.9Z"/><path class="cls-3" d="M149.16,87.89s-.65-11.4,1.09-15.87"/><path class="cls-2" d="M141.05,102.5s-4.88-.83-5.62-7.91S137.53,84,137.53,84s6.19,2.34,7,7.94S143.83,99.52,141.05,102.5Z"/><path class="cls-3" d="M141.29,102.41s-3.95-10.71-3.59-15.5"/><path class="cls-2" d="M135.44,108.86s-4.88-.82-5.62-7.9,2.1-10.58,2.1-10.58,6.19,2.33,7,7.93S138.22,105.88,135.44,108.86Z"/><path class="cls-3" d="M135.68,108.78s-4-10.72-3.59-15.5"/><path class="cls-2" d="M129.78,118.11s-4.89-.82-5.62-7.9,2.09-10.58,2.09-10.58,6.19,2.33,7,7.93S132.55,115.13,129.78,118.11Z"/><path class="cls-3" d="M130,118s-3.94-10.71-3.58-15.49"/><path class="cls-2" d="M105.79,142.32s-4.89-.83-5.62-7.91,2.09-10.57,2.09-10.57,6.2,2.33,7,7.93S108.57,139.34,105.79,142.32Z"/><path class="cls-3" d="M106,142.23s-4-10.71-3.59-15.49"/><path class="cls-2" d="M115.57,132.3s-4.89-.82-5.62-7.9S112,113.82,112,113.82s6.19,2.33,7,7.93S118.35,129.32,115.57,132.3Z"/><path class="cls-3" d="M115.8,132.21s-3.94-10.71-3.58-15.49"/><path class="cls-2" d="M118.43,112.92s-4.77,1.33-8.44-4.77-2.59-10.47-2.59-10.47,6.59-.51,9.69,4.23S119.68,109.05,118.43,112.92Z"/><path class="cls-3" d="M118.61,112.75s-8.12-8-9.82-12.52"/><path class="cls-2" d="M117.77,119.42s-2.07-4.5,3.38-9.09,9.93-4.21,9.93-4.21,1.55,6.43-2.64,10.24S121.79,120.05,117.77,119.42Z"/><path class="cls-3" d="M118,119.57s6.65-9.28,10.81-11.67"/><path class="cls-2" d="M51.81,91.47s.64,4.2-4.93,6.69-9.18,1.13-9.18,1.13.24-5.67,4.59-7.82S48.64,90,51.81,91.47Z"/><path class="cls-3" d="M51.68,91.3S44,97.38,40,98.37"/><path class="cls-2" d="M62.36,94.69S62,98.92,56,100s-9.18-1.09-9.18-1.09,1.58-5.44,6.32-6.49S59.63,92.51,62.36,94.69Z"/><path class="cls-3" d="M62.27,94.49s-8.9,4.08-13,4.09"/><path class="cls-2" d="M68.25,102.69s-2.12,3.68-8,2.15S52.35,100,52.35,100s3.73-4.28,8.46-3.24S66.69,99.56,68.25,102.69Z"/><path class="cls-3" d="M68.25,102.47s-9.79,0-13.52-1.76"/><path class="cls-2" d="M39.15,84.08s-4.23-.4-5.3-6.41S35,68.49,35,68.49s5.44,1.61,6.47,6.35S41.34,81.36,39.15,84.08Z"/><path class="cls-3" d="M39.35,84s-4-8.92-4-13"/><path class="cls-2" d="M53.92,91.72s-4.18.77-6.85-4.72-1.42-9.14-1.42-9.14,5.68.07,8,4.35S55.28,88.51,53.92,91.72Z"/><path class="cls-3" d="M54.08,91.58s-6.32-7.47-7.43-11.43"/><path class="cls-2" d="M108,88.12S103.54,86,104.83,79s5-9.56,5-9.56,5.29,4,4.47,9.58S111.5,86.05,108,88.12Z"/><path class="cls-3" d="M108.24,88.11s-.77-11.39.93-15.88"/><path class="cls-2" d="M108,31.87s-3.77-2-2.49-7.93S110,15.86,110,15.86s4.43,3.55,3.59,8.33S111.05,30.18,108,31.87Z"/><path class="cls-3" d="M108.21,31.86s-.38-9.78,1.18-13.58"/><path class="cls-2" d="M101.36,38.51s-3.77-2-2.49-7.93,4.51-8.08,4.51-8.08,4.43,3.54,3.6,8.32S104.42,36.82,101.36,38.51Z"/><path class="cls-3" d="M101.58,38.5s-.38-9.78,1.18-13.59"/><path class="cls-2" d="M96.15,33.55s-3.19-2.81-.52-8.3,6.31-6.76,6.31-6.76,3.46,4.5,1.5,8.94S99.52,32.64,96.15,33.55Z"/><path class="cls-3" d="M96.36,33.59s2-9.59,4.4-12.91"/><path class="cls-2" d="M94.23,47s-4.23.36-6.35-5.36-.52-9.24-.52-9.24,5.64.62,7.5,5.1S95.9,44,94.23,47Z"/><path class="cls-3" d="M94.41,46.89s-5.56-8.06-6.28-12.11"/><path class="cls-2" d="M96.63,43s-3.19-2.81-.53-8.3S102.41,28,102.41,28s3.46,4.5,1.5,8.94S100,42.09,96.63,43Z"/><path class="cls-3" d="M96.83,43.05s2-9.59,4.4-12.91"/><path class="cls-2" d="M66.44,16.29s-3.36-3.17-.26-9S73.28.15,73.28.15s3.58,5,1.3,9.76S70.13,15.42,66.44,16.29Z"/><path class="cls-3" d="M66.67,16.35S69.16,6,71.91,2.48"/><path class="cls-2" d="M70.29,34s-4,1.49-7.57-3.45-3-8.75-3-8.75,5.6-.93,8.6,2.89S71.07,30.59,70.29,34Z"/><path class="cls-3" d="M70.42,33.82s-7.53-6.25-9.32-9.95"/><path class="cls-2" d="M77.75,48.53s-2.66,3.32-8.27.91-7.05-6-7.05-6,4.33-3.66,8.85-1.92S76.67,45.21,77.75,48.53Z"/><path class="cls-3" d="M77.78,48.32s-9.67-1.52-13.11-3.78"/><path class="cls-2" d="M72.34,55.37s-1.74,3.88-7.77,3-8.33-4-8.33-4,3.28-4.63,8.1-4.07S70.47,52.42,72.34,55.37Z"/><path class="cls-3" d="M72.32,55.16s-9.74,1-13.63-.39"/><path class="cls-2" d="M79.36,59.57s-1.74,3.87-7.77,3-8.33-4-8.33-4,3.28-4.63,8.1-4.08S77.49,56.62,79.36,59.57Z"/><path class="cls-3" d="M79.34,59.35S69.6,60.3,65.71,59"/><path class="cls-2" d="M77.77,57.26s-4.24-.24-5.53-6.2.78-9.22.78-9.22,5.5,1.41,6.7,6.11S79.86,54.46,77.77,57.26Z"/><path class="cls-3" d="M78,57.17s-4.37-8.76-4.52-12.87"/><path class="cls-2" d="M68.15,51.82s-4.24-.23-5.54-6.2.79-9.22.79-9.22,5.49,1.41,6.7,6.11S70.23,49,68.15,51.82Z"/><path class="cls-3" d="M68.34,51.73S64,43,63.82,38.86"/><path class="cls-2" d="M113.14,78.76S108.68,76.6,110,69.6,115,60,115,60s5.28,4,4.47,9.58S116.64,76.68,113.14,78.76Z"/><path class="cls-3" d="M113.39,78.74s-.77-11.39.92-15.87"/><path class="cls-2" d="M119.52,19.21s-3.2-2.79-.56-8.29,6.28-6.8,6.28-6.8,3.48,4.49,1.54,8.94S122.89,18.28,119.52,19.21Z"/><path class="cls-3" d="M119.73,19.26s1.93-9.6,4.34-12.94"/><path class="cls-2" d="M126.11,29.62s-1.34-4,3.74-7.43,8.86-2.65,8.86-2.65.71,5.63-3.22,8.47S129.48,30.53,126.11,29.62Z"/><path class="cls-3" d="M126.27,29.76s6.54-7.28,10.31-8.93"/><path class="cls-2" d="M115.4,33.46s2.16-4.08,8.64-2.65,8.74,5,8.74,5-3.89,4.79-9.07,3.84S117.21,36.79,115.4,33.46Z"/><path class="cls-3" d="M115.4,33.69s10.64-.34,14.76,1.38"/><path class="cls-2" d="M121.83,55.58s-5,0-6.87-6.85.28-10.78.28-10.78,6.5,1.26,8.22,6.65S124.06,52.18,121.83,55.58Z"/><path class="cls-3" d="M122,55.45s-5.69-9.9-6.13-14.67"/><path class="cls-2" d="M103.19,82.31s-4,.7-6.52-4.57S95.38,69,95.38,69s5.44.1,7.59,4.21S104.52,79.24,103.19,82.31Z"/><path class="cls-3" d="M103.35,82.17s-6-7.2-7-11"/><path class="cls-2" d="M103.75,72.32s-4,.71-6.52-4.57S95.94,59,95.94,59s5.43.11,7.59,4.22S105.08,69.26,103.75,72.32Z"/><path class="cls-3" d="M103.91,72.19s-6-7.2-7-11"/><path class="cls-2" d="M102,72.71s-1.06-4.12,4.24-7.15,9-2,9-2,.32,5.66-3.79,8.23S105.33,73.85,102,72.71Z"/><path class="cls-3" d="M102.18,72.86s7-6.82,10.9-8.2"/></g></g></svg>