<svg xmlns="http://www.w3.org/2000/svg" viewBox="0 0 1051.6 1051.6"><defs><style>.cls-1{fill:#723710;}.cls-2{fill:#00944f;}.cls-2,.cls-3,.cls-4,.cls-5{stroke:#435640;stroke-miterlimit:10;}.cls-2,.cls-3,.cls-4{stroke-width:0.43px;}.cls-3{fill:none;}.cls-4{fill:#009f59;}.cls-5{fill:#00bf71;stroke-width:0.74px;opacity:0;}</style></defs><g id="Calque_3" data-name="Calque 3"><g id="Calque_2" data-name="Calque 2"><g id="Calque_2-2" data-name="Calque 2-2"><path class="cls-1" d="M527.4,994.8c0-46.4,2.6-92.8,5.6-139.1s6.4-92,7.7-138.2c.7-26,.8-52-.2-78a8.6,8.6,0,0,0-17.2,0c1.8,46.4.1,92.8-2.5,139.1s-6.3,92.1-8.6,138.2c-1.3,26-2.1,52-2.1,78a8.6,8.6,0,1,0,17.2,0Z" transform="translate(-16.4 -14.3)"/><path class="cls-1" d="M531.8,819.2c15.8-19.6,33.4-37.6,50.7-55.9s34-36.8,48.2-57.4a221.7,221.7,0,0,0,20.7-36.4,3.2,3.2,0,0,0-1.1-4.4,3.2,3.2,0,0,0-4.4,1.2c-10,22.4-24.2,42.7-40,61.4s-33.8,36.9-50.8,55.2c-9.6,10.3-18.9,20.8-27.9,31.7a3.3,3.3,0,1,0,4.6,4.6Z" transform="translate(-16.4 -14.3)"/><path class="cls-1" d="M537.5,739.2q35.3-49.8,65.8-102.6c5.7-9.9,11.3-19.9,16.8-29.9,2-3.6-3.5-6.9-5.5-3.2q-29.2,53.4-63.2,104.1c-6.3,9.6-12.8,19-19.4,28.3-2.4,3.5,3.2,6.7,5.5,3.3Z" transform="translate(-16.4 -14.3)"/><path class="cls-1" d="M629.6,714.7a71.2,71.2,0,0,0,49.8-38.8c1.7-3.7-3.8-7-5.5-3.2a65.5,65.5,0,0,1-46,35.8c-4.1.8-2.3,7,1.7,6.2Z" transform="translate(-16.4 -14.3)"/><path class="cls-1" d="M554.7,785.6c10.3,6.2,21.6,12.2,34,12.1,10.3,0,20.6-4.3,26.4-13.1,2.3-3.4-3.3-6.7-5.6-3.2-4.7,7.2-13.7,10.1-22.1,9.8-10.7-.3-20.6-5.8-29.5-11.2-3.5-2.2-6.8,3.4-3.2,5.6Z" transform="translate(-16.4 -14.3)"/><path class="cls-1" d="M527.3,728.7q-38.5-48.2-72.8-99.5c-6.6-9.8-13-19.6-19.2-29.5-2.2-3.4-7.8-.2-5.6,3.3q33.4,52.8,71.4,102.5c7.1,9.4,14.3,18.6,21.6,27.7a3.2,3.2,0,0,0,4.6,0A3.3,3.3,0,0,0,527.3,728.7Z" transform="translate(-16.4 -14.3)"/><path class="cls-1" d="M465.2,639.5a255.7,255.7,0,0,0-16.5-59.4,3.5,3.5,0,0,0-4-2.2,3.3,3.3,0,0,0-2.3,4,249.2,249.2,0,0,1,16.7,59.3,3.3,3.3,0,0,0,3.9,2.3,3.4,3.4,0,0,0,2.3-4Z" transform="translate(-16.4 -14.3)"/><path class="cls-1" d="M491.2,682.8a61.7,61.7,0,0,1-56.7-34.3c-1.8-3.7-7.4-.4-5.6,3.3a68.3,68.3,0,0,0,62.3,37.5C495.3,689.1,495.3,682.7,491.2,682.8Z" transform="translate(-16.4 -14.3)"/><path class="cls-1" d="M527.3,814.2q-45.4-51-92.9-100.1c-8.9-9.3-17.8-18.4-26.9-27.5-2.9-3-7.4,1.6-4.5,4.5q47.8,48.6,93.9,99c8.7,9.5,17.3,19.1,25.8,28.7,2.8,3.1,7.3-1.5,4.6-4.6Z" transform="translate(-16.4 -14.3)"/><path class="cls-1" d="M440.4,717.9a186.9,186.9,0,0,0-15.7-37.6c-2-3.6-7.6-.4-5.6,3.3a168.1,168.1,0,0,1,15.1,36.1C435.4,723.6,441.6,722,440.4,717.9Z" transform="translate(-16.4 -14.3)"/><path class="cls-1" d="M464.4,750.8c-11.9-3.1-22-10.3-32.3-16.7a129.2,129.2,0,0,0-15.8-8.8c-4.8-2.1-11.1-3.4-14.3-8s-7.9-.1-5.5,3.3c3.6,5.2,9.2,7.3,14.8,9.6a98.2,98.2,0,0,1,16.9,9.1c11,6.8,21.8,14.5,34.5,17.7C466.7,758,468.4,751.9,464.4,750.8Z" transform="translate(-16.4 -14.3)"/><path class="cls-1" d="M502.6,781.8a227.5,227.5,0,0,0-13-54.6c-1.4-3.9-7.6-2.2-6.2,1.7a223.3,223.3,0,0,1,12.8,52.9,3.3,3.3,0,0,0,3.2,3.2A3.2,3.2,0,0,0,502.6,781.8Z" transform="translate(-16.4 -14.3)"/><path class="cls-2" d="M575.8,794.1s7.9-4.6,17.3,4.6,9.5,17.6,9.5,17.6-11.6,4-19.3-3.1S575.3,801.6,575.8,794.1Z" transform="translate(-16.4 -14.3)"/><path class="cls-3" d="M575.5,794.5s18.3,10.6,23.5,17.9" transform="translate(-16.4 -14.3)"/><path class="cls-2" d="M601.6,790.9s3.3-6.8,14.2-4.9,14.8,7.6,14.8,7.6-6.1,8.2-14.8,7S604.9,796.4,601.6,790.9Z" transform="translate(-16.4 -14.3)"/><path class="cls-3" d="M601.7,791.3s17.6-1.2,24.5,1.3" transform="translate(-16.4 -14.3)"/><path class="cls-2" d="M644,706.9s7-6,18,1.4,12.7,15.6,12.7,15.6-10.8,6-19.7.5S645,714.4,644,706.9Z" transform="translate(-16.4 -14.3)"/><path class="cls-3" d="M643.9,707.3s20,7.2,26.4,13.4" transform="translate(-16.4 -14.3)"/><path class="cls-2" d="M657.9,697.7s2.9-8.6,16-7.8,18.6,7,18.6,7-6.2,10.5-16.6,10.3S662.4,703.6,657.9,697.7Z" transform="translate(-16.4 -14.3)"/><path class="cls-3" d="M657.9,698.1s20.7-3.9,29.3-1.7" transform="translate(-16.4 -14.3)"/><path class="cls-2" d="M672.4,681.9s1-8.9,13.8-11,19.3,2.7,19.3,2.7S701.9,685,691.9,687,678.1,686.5,672.4,681.9Z" transform="translate(-16.4 -14.3)"/><path class="cls-2" d="M672.6,682.2s18.9-8.2,27.5-8" transform="translate(-16.4 -14.3)"/><path class="cls-1" d="M597.1,743.8a47.4,47.4,0,0,1,4.7-42.5c2.2-3.5-3.4-6.8-5.6-3.3a53.8,53.8,0,0,0-5.2,47.6c1.5,3.8,7.7,2.1,6.3-1.8Z" transform="translate(-16.4 -14.3)"/><path class="cls-1" d="M585.5,667.8c17.8-6.2,36.6-13.2,47.2-29.7,2.2-3.4-3.3-6.7-5.6-3.3-9.6,15-27.3,21.2-43.3,26.8C579.9,662.9,581.6,669.1,585.5,667.8Z" transform="translate(-16.4 -14.3)"/><path class="cls-1" d="M566.2,688.1a155.7,155.7,0,0,1,.9-36.1,3.5,3.5,0,0,0-2.3-4,3.4,3.4,0,0,0-4,2.3,164.8,164.8,0,0,0-1,37.8,3.2,3.2,0,0,0,3.2,3.2A3.2,3.2,0,0,0,566.2,688.1Z" transform="translate(-16.4 -14.3)"/><path class="cls-1" d="M602.3,631a70,70,0,0,1,2.7-37.4c1.3-3.9-4.9-5.6-6.2-1.7a76.5,76.5,0,0,0-2.7,40.8c.8,4.1,7,2.4,6.2-1.7Z" transform="translate(-16.4 -14.3)"/><path class="cls-1" d="M535.8,647.4A221.7,221.7,0,0,1,603,559.3a3.3,3.3,0,0,0,0-4.5,3.4,3.4,0,0,0-4.6,0,228.3,228.3,0,0,0-57.7,67.9,194.7,194.7,0,0,0-11.1,23,3.1,3.1,0,0,0,2.2,3.9,3.3,3.3,0,0,0,4-2.2Z" transform="translate(-16.4 -14.3)"/><path class="cls-1" d="M533.5,644.9a149.9,149.9,0,0,0-40.1-68.2c-3-2.9-7.6,1.8-4.6,4.6a142.7,142.7,0,0,1,38.5,65.3c1.1,4,7.3,2.3,6.2-1.7Z" transform="translate(-16.4 -14.3)"/><path class="cls-1" d="M554.4,609.5a57.1,57.1,0,0,1,3.6-41.2c1.9-3.7-3.7-7-5.6-3.3a64.3,64.3,0,0,0-4.3,46.2c1.2,4,7.4,2.3,6.3-1.7Z" transform="translate(-16.4 -14.3)"/><path class="cls-1" d="M577.1,584.6c8.6-.2,17,1.3,25.5-.1a25.9,25.9,0,0,0,17.2-10.3c2.3-3.5-3.3-6.7-5.6-3.3s-8.9,6.8-14.3,7.4c-7.6,1-15.3-.4-22.9-.2-4.1.2-4.1,6.6,0,6.5Z" transform="translate(-16.4 -14.3)"/><path class="cls-1" d="M508.8,586.6a82.8,82.8,0,0,0-6.7-39.9,3.2,3.2,0,0,0-4.4-1.2,3.4,3.4,0,0,0-1.2,4.4,75.9,75.9,0,0,1,5.9,36.7C502.1,590.8,508.5,590.8,508.8,586.6Z" transform="translate(-16.4 -14.3)"/><path class="cls-1" d="M518.9,620a40.5,40.5,0,0,1-26.7-15.7,3.2,3.2,0,0,0-4.4-1.1,3.2,3.2,0,0,0-1.2,4.4,46.7,46.7,0,0,0,30.6,18.6,3.2,3.2,0,0,0,1.7-6.2Z" transform="translate(-16.4 -14.3)"/><path class="cls-1" d="M507.4,699.6a174,174,0,0,0-7.6-42.4c-1.3-4-7.5-2.3-6.2,1.7a170.7,170.7,0,0,1,7.4,40.7C501.2,703.7,507.7,703.7,507.4,699.6Z" transform="translate(-16.4 -14.3)"/><path class="cls-4" d="M583.3,761.8s1.8-9.2,15.1-10.2,19.7,4.3,19.7,4.3-4.6,11.5-15.2,12.8S588.8,767.1,583.3,761.8Z" transform="translate(-16.4 -14.3)"/><path class="cls-4" d="M583.5,762.2s20.2-6.9,29.2-6.1" transform="translate(-16.4 -14.3)"/><path class="cls-4" d="M608.9,734.8s1.7-9.1,15-10.1,19.7,4.3,19.7,4.3-4.6,11.5-15.1,12.8S614.3,740.2,608.9,734.8Z" transform="translate(-16.4 -14.3)"/><path class="cls-4" d="M609,735.3s20.2-6.9,29.2-6.1" transform="translate(-16.4 -14.3)"/><path class="cls-4" d="M626.3,645.4s-.5-7.9,10.3-11.6,17.2-.6,17.2-.6-1.5,10.5-9.9,13.8S631.9,648.6,626.3,645.4Z" transform="translate(-16.4 -14.3)"/><path class="cls-4" d="M626.5,645.8s15.3-10.1,22.9-11.2" transform="translate(-16.4 -14.3)"/><path class="cls-4" d="M607.8,657.2s3-8.6,16-7.8,18.4,6.8,18.4,6.8-6,10.5-16.3,10.4S612.4,663.1,607.8,657.2Z" transform="translate(-16.4 -14.3)"/><path class="cls-4" d="M607.9,657.6s20.5-3.9,29-1.9" transform="translate(-16.4 -14.3)"/><path class="cls-4" d="M590.7,665.1s5-6.5,16-2.1,13.9,11.4,13.9,11.4-8.3,7.2-17.2,4S592.9,671.5,590.7,665.1Z" transform="translate(-16.4 -14.3)"/><path class="cls-4" d="M590.6,665.5s18.9,2.6,25.6,6.9" transform="translate(-16.4 -14.3)"/><path class="cls-4" d="M573.9,683.6s1.7-9.2,15.1-10.3,19.8,4.3,19.8,4.3-4.6,11.6-15.2,12.8S579.4,688.9,573.9,683.6Z" transform="translate(-16.4 -14.3)"/><path class="cls-4" d="M574,684s20.4-7,29.4-6.1" transform="translate(-16.4 -14.3)"/><path class="cls-4" d="M558.4,706.2s-.7-9.1,11.6-13.5,19.7-1,19.7-1-1.4,12-11,16S565,709.8,558.4,706.2Z" transform="translate(-16.4 -14.3)"/><path class="cls-4" d="M558.7,706.6s17.3-11.8,26-13.3" transform="translate(-16.4 -14.3)"/><path class="cls-4" d="M540.2,734.4s-2.7-9.6,9.5-16.9,20.9-5.2,20.9-5.2,1,13.2-8.4,19.4S547.9,736.9,540.2,734.4Z" transform="translate(-16.4 -14.3)"/><path class="cls-4" d="M540.6,734.7s16-16.3,24.9-19.7" transform="translate(-16.4 -14.3)"/><path class="cls-4" d="M557.2,782.4s-7.7-1.4-8.7-12.7S552,753,552,753s9.8,3.8,10.9,12.7S561.7,777.7,557.2,782.4Z" transform="translate(-16.4 -14.3)"/><path class="cls-4" d="M557.6,782.3s-6-17.1-5.4-24.7" transform="translate(-16.4 -14.3)"/><path class="cls-4" d="M577,762s-7.8-1.4-8.8-12.6,3.6-16.8,3.6-16.8,9.8,3.9,10.9,12.8S581.4,757.4,577,762Z" transform="translate(-16.4 -14.3)"/><path class="cls-4" d="M577.4,761.9s-6.1-17.1-5.4-24.6" transform="translate(-16.4 -14.3)"/><path class="cls-4" d="M589.1,733.1s-6.9,3.7-14.7-4.4-7.7-15.4-7.7-15.4,10-3.1,16.5,3.2S589.7,726.6,589.1,733.1Z" transform="translate(-16.4 -14.3)"/><path class="cls-4" d="M589.3,732.8s-15.4-9.6-19.6-16" transform="translate(-16.4 -14.3)"/><path class="cls-4" d="M587.8,711.9s-8.4-1.4-9.7-13.5,3.5-18.3,3.5-18.3,10.7,4,12.1,13.6S592.6,706.8,587.8,711.9Z" transform="translate(-16.4 -14.3)"/><path class="cls-4" d="M588.2,711.7s-6.9-18.3-6.2-26.6" transform="translate(-16.4 -14.3)"/><path class="cls-4" d="M592,722.7s-3.5-7.8,6-15.6,17.2-7.1,17.2-7.1,2.5,11.1-4.8,17.6S598.9,723.9,592,722.7Z" transform="translate(-16.4 -14.3)"/><path class="cls-4" d="M592.3,723s11.7-15.9,18.9-20" transform="translate(-16.4 -14.3)"/><path class="cls-4" d="M651.6,700.1s-7.6-3.8-5.3-15.8S655,668,655,668s9,6.9,7.5,16.5S657.6,696.6,651.6,700.1Z" transform="translate(-16.4 -14.3)"/><path class="cls-4" d="M652,700.1s-1.1-19.6,1.9-27.3" transform="translate(-16.4 -14.3)"/><path class="cls-4" d="M671.9,676.9s-7.6-3.8-5.2-15.8,8.7-16.3,8.7-16.3,9,6.8,7.5,16.5S678,673.4,671.9,676.9Z" transform="translate(-16.4 -14.3)"/><path class="cls-4" d="M672.4,676.9s-1.1-19.6,1.9-27.3" transform="translate(-16.4 -14.3)"/><path class="cls-4" d="M631.4,692.6s-7.7-3.7-5.5-15.7,8.6-16.4,8.6-16.4,9.1,6.8,7.7,16.4S637.4,689.1,631.4,692.6Z" transform="translate(-16.4 -14.3)"/><path class="cls-4" d="M631.8,692.6s-1.3-19.6,1.6-27.3" transform="translate(-16.4 -14.3)"/><path class="cls-4" d="M610.5,652.1s-7.2-5.1-2.9-16.9S618.9,620,618.9,620s8.1,8.4,5.2,18S617.2,649.4,610.5,652.1Z" transform="translate(-16.4 -14.3)"/><path class="cls-4" d="M610.9,652.1s1.9-20.1,6.2-27.5" transform="translate(-16.4 -14.3)"/><path class="cls-4" d="M612.7,617.4s-.5-7.9,10.3-11.6,17.2-.6,17.2-.6-1.4,10.5-9.9,13.8S618.3,620.7,612.7,617.4Z" transform="translate(-16.4 -14.3)"/><path class="cls-4" d="M612.9,617.7s15.3-10,22.9-11.1" transform="translate(-16.4 -14.3)"/><path class="cls-4" d="M599.9,611.5s-3.3-7.2,5.4-14.6,15.8-6.9,15.8-6.9,2.6,10.3-4.1,16.4S606.4,612.5,599.9,611.5Z" transform="translate(-16.4 -14.3)"/><path class="cls-4" d="M600.3,611.7s10.5-14.9,17.2-18.7" transform="translate(-16.4 -14.3)"/><path class="cls-4" d="M597.6,612.3s-8.6,0-11.8-11.7.5-18.6.5-18.6,11.1,2.2,14.1,11.5S601.4,606.5,597.6,612.3Z" transform="translate(-16.4 -14.3)"/><path class="cls-4" d="M597.9,612.1s-9.7-17-10.5-25.2" transform="translate(-16.4 -14.3)"/><path class="cls-4" d="M588.8,649.8s-7.7-3.7-5.5-15.7,8.6-16.5,8.6-16.5,9.1,6.9,7.7,16.5S594.9,646.3,588.8,649.8Z" transform="translate(-16.4 -14.3)"/><path class="cls-4" d="M589.2,649.8s-1.3-19.6,1.6-27.3" transform="translate(-16.4 -14.3)"/><path class="cls-4" d="M547.5,714.8s-7.6-3.7-5.5-15.8,8.6-16.4,8.6-16.4,9.1,6.9,7.7,16.5S553.5,711.2,547.5,714.8Z" transform="translate(-16.4 -14.3)"/><path class="cls-4" d="M547.9,714.8s-1.3-19.6,1.6-27.3" transform="translate(-16.4 -14.3)"/><path class="cls-4" d="M562.6,689.4s-6.9,1.2-11.3-7.8-2.2-15.1-2.2-15.1,9.4.2,13.1,7.3S564.8,684.2,562.6,689.4Z" transform="translate(-16.4 -14.3)"/><path class="cls-4" d="M562.8,689.2s-10.3-12.4-12-18.9" transform="translate(-16.4 -14.3)"/><path class="cls-4" d="M560.2,657.2s-6.8,1.2-11.2-7.9-2.2-15.1-2.2-15.1,9.3.2,13,7.3S562.5,651.9,560.2,657.2Z" transform="translate(-16.4 -14.3)"/><path class="cls-4" d="M560.5,656.9s-10.3-12.4-12-18.9" transform="translate(-16.4 -14.3)"/><path class="cls-4" d="M568.1,670.9s-4.5-4.5,0-12.4,10-9.3,10-9.3,4.7,7,1.3,13.4S573.1,669.8,568.1,670.9Z" transform="translate(-16.4 -14.3)"/><path class="cls-4" d="M568.4,670.9s3.8-14,7.7-18.6" transform="translate(-16.4 -14.3)"/><path class="cls-4" d="M568,786.7s-1.5-7.7,8.6-12.8,16.9-2.8,16.9-2.8,0,10.4-7.8,14.8S574,789.2,568,786.7Z" transform="translate(-16.4 -14.3)"/><path class="cls-4" d="M568.3,787s13.7-11.9,21-14" transform="translate(-16.4 -14.3)"/><path class="cls-4" d="M593.5,789.8s-3.6-7,4.7-14.7,15.5-7.4,15.5-7.4,2.9,10.1-3.5,16.4S599.9,790.4,593.5,789.8Z" transform="translate(-16.4 -14.3)"/><path class="cls-4" d="M593.8,790s9.9-15.2,16.3-19.3" transform="translate(-16.4 -14.3)"/><path class="cls-4" d="M595.9,554.2s2.2-7.6,13.6-7.4,16.5,5.3,16.5,5.3-4.9,9.4-13.9,9.6S600,559.2,595.9,554.2Z" transform="translate(-16.4 -14.3)"/><path class="cls-4" d="M596,554.7s17.8-4.3,25.3-2.9" transform="translate(-16.4 -14.3)"/><path class="cls-4" d="M612.8,574.9s3.3-7.2,14.6-5.4,15.5,7.6,15.5,7.6-6.2,8.6-15.2,7.5S616.3,580.4,612.8,574.9Z" transform="translate(-16.4 -14.3)"/><path class="cls-4" d="M612.9,575.3s18.2-1.6,25.4.9" transform="translate(-16.4 -14.3)"/><path class="cls-4" d="M568.7,588.8s3.8-6.8,14.9-4.3,14.9,8.8,14.9,8.8-6.9,8.1-15.7,6.3S571.7,594.6,568.7,588.8Z" transform="translate(-16.4 -14.3)"/><path class="cls-4" d="M568.7,589.3s18.2-.3,25.3,2.7" transform="translate(-16.4 -14.3)"/><path class="cls-4" d="M554.5,611.5s0-8,11-11,17.4.6,17.4.6-2.1,10.3-10.8,13.1S560,615.1,554.5,611.5Z" transform="translate(-16.4 -14.3)"/><path class="cls-4" d="M554.7,611.8s15.9-9,23.6-9.7" transform="translate(-16.4 -14.3)"/><path class="cls-4" d="M540.3,631.2s0-7.9,11-10.9,17.2.5,17.2.5-2,10.3-10.7,13.1S545.7,634.8,540.3,631.2Z" transform="translate(-16.4 -14.3)"/><path class="cls-4" d="M540.5,631.6s15.9-9.1,23.6-9.7" transform="translate(-16.4 -14.3)"/><path class="cls-4" d="M595.5,583s3.7-7,14.9-4.5,15,8.5,15,8.5-6.7,8.3-15.6,6.7S598.6,588.7,595.5,583Z" transform="translate(-16.4 -14.3)"/><path class="cls-4" d="M595.5,583.4s18.3-.6,25.4,2.4" transform="translate(-16.4 -14.3)"/><path class="cls-4" d="M554.2,577.3s-5.8-5.3-.4-15.3S566,550,566,550s6.1,8.5,2.2,16.5S560.5,575.9,554.2,577.3Z" transform="translate(-16.4 -14.3)"/><path class="cls-4" d="M554.6,577.4s4.3-17.5,9-23.5" transform="translate(-16.4 -14.3)"/><path class="cls-4" d="M506.9,564s-5.8-5.5-.5-15.5,12.3-12.2,12.3-12.2,6.1,8.6,2.2,16.8S513.2,562.5,506.9,564Z" transform="translate(-16.4 -14.3)"/><path class="cls-4" d="M507.2,564.1s4.3-17.8,9-23.8" transform="translate(-16.4 -14.3)"/><path class="cls-4" d="M507.7,588.5s-4.6-6.5,2.6-15.3,14.4-9.5,14.4-9.5,4.4,9.7-1.1,16.9S514.2,588.3,507.7,588.5Z" transform="translate(-16.4 -14.3)"/><path class="cls-4" d="M508,588.7s7.8-16.6,13.6-21.5" transform="translate(-16.4 -14.3)"/><path class="cls-4" d="M518,611.2s-5.9-5.3-.9-15.5S529,583.1,529,583.1s6.4,8.5,2.7,16.7S524.3,609.5,518,611.2Z" transform="translate(-16.4 -14.3)"/><path class="cls-4" d="M518.4,611.2s3.8-17.8,8.3-24" transform="translate(-16.4 -14.3)"/><path class="cls-4" d="M528.5,632.4s-6.6-4.4-3.1-15.2,10-14.1,10-14.1,7.5,7.4,5,16.1S534.5,629.8,528.5,632.4Z" transform="translate(-16.4 -14.3)"/><path class="cls-4" d="M528.9,632.4s1.2-18.2,4.8-25" transform="translate(-16.4 -14.3)"/><path class="cls-4" d="M580.9,576.6s-6.6-3.1-4.8-13.5,7.2-14.1,7.2-14.1,7.9,5.8,6.7,14S586,573.6,580.9,576.6Z" transform="translate(-16.4 -14.3)"/><path class="cls-4" d="M581.3,576.6s-1.3-16.8,1.1-23.5" transform="translate(-16.4 -14.3)"/><path class="cls-4" d="M584,581.1s-2.3-6.9,6.4-12.8,15.2-4.5,15.2-4.5,1.3,9.8-5.6,14.6S589.7,582.7,584,581.1Z" transform="translate(-16.4 -14.3)"/><path class="cls-4" d="M584.2,581.4S595.5,568.8,602,566" transform="translate(-16.4 -14.3)"/><path class="cls-4" d="M546.9,579.7s-7.2-1.6-7.7-12.1,3.8-15.4,3.8-15.4,9,3.8,9.7,12.1S551.2,575.5,546.9,579.7Z" transform="translate(-16.4 -14.3)"/><path class="cls-4" d="M547.2,579.5s-5-16-4.1-23" transform="translate(-16.4 -14.3)"/><path class="cls-4" d="M545.9,592.2s-7.3.6-10.9-9.2-.9-15.9-.9-15.9,9.7,1.1,12.8,8.8S548.7,586.9,545.9,592.2Z" transform="translate(-16.4 -14.3)"/><path class="cls-4" d="M546.2,592s-9.6-13.8-10.8-20.8" transform="translate(-16.4 -14.3)"/><path class="cls-4" d="M535,660.6s-4.9-5.4.7-14.2,12-10.4,12-10.4,5.2,8.4.9,15.5S540.9,659.7,535,660.6Z" transform="translate(-16.4 -14.3)"/><path class="cls-4" d="M535.4,660.7s5.1-16,9.9-21.2" transform="translate(-16.4 -14.3)"/><path class="cls-4" d="M535,693.1s-4.9-5.4.7-14.3,12-10.3,12-10.3,5.2,8.3.9,15.5S540.9,692.2,535,693.1Z" transform="translate(-16.4 -14.3)"/><path class="cls-4" d="M535.4,693.2s5.1-16,9.9-21.3" transform="translate(-16.4 -14.3)"/><path class="cls-4" d="M528.7,643.8s-6,4.3-14.1-2.3-8.9-13.2-8.9-13.2,8.9-4,15.5,1S528.4,637.8,528.7,643.8Z" transform="translate(-16.4 -14.3)"/><path class="cls-4" d="M528.8,643.5s-15.3-7-19.9-12.4" transform="translate(-16.4 -14.3)"/><path class="cls-4" d="M529.7,673.3s-7,1.7-12.2-7.4-3.4-15.4-3.4-15.4,9.7-.6,14.1,6.5S531.7,667.6,529.7,673.3Z" transform="translate(-16.4 -14.3)"/><path class="cls-4" d="M530,673s-11.7-12.1-14.1-18.8" transform="translate(-16.4 -14.3)"/><path class="cls-4" d="M528.7,709.2s-7.2,1.1-11.5-8.6-1.9-15.8-1.9-15.8,9.7.4,13.4,7.9S531.3,703.7,528.7,709.2Z" transform="translate(-16.4 -14.3)"/><path class="cls-4" d="M529,708.9s-10.4-13.2-12-20" transform="translate(-16.4 -14.3)"/><path class="cls-4" d="M502.3,571.3s-6.9,2.5-13-6-5.2-15-5.2-15,9.7-1.6,14.8,4.9S503.6,565.4,502.3,571.3Z" transform="translate(-16.4 -14.3)"/><path class="cls-4" d="M502.5,571s-12.9-10.8-15.9-17.1" transform="translate(-16.4 -14.3)"/><path class="cls-4" d="M499.6,591.6s-4.5,5.7-14.2,1.6-12.1-10.3-12.1-10.3,7.4-6.3,15.2-3.3S497.8,585.9,499.6,591.6Z" transform="translate(-16.4 -14.3)"/><path class="cls-4" d="M499.7,591.3s-16.6-2.6-22.5-6.5" transform="translate(-16.4 -14.3)"/><path class="cls-4" d="M508.9,600.3s-4.5,5.7-14.2,1.6-12.1-10.3-12.1-10.3,7.5-6.3,15.2-3.3S507,594.6,508.9,600.3Z" transform="translate(-16.4 -14.3)"/><path class="cls-4" d="M508.9,599.9s-16.6-2.6-22.5-6.4" transform="translate(-16.4 -14.3)"/><path class="cls-4" d="M500.2,613.6s-3,6.7-13.3,5.2-14.3-6.9-14.3-6.9,5.6-8,13.9-7S497,608.6,500.2,613.6Z" transform="translate(-16.4 -14.3)"/><path class="cls-4" d="M500.2,613.3s-16.8,1.6-23.5-.7" transform="translate(-16.4 -14.3)"/><path class="cls-4" d="M541.8,799.4s-7.1-1.9-7.1-12.4,4.6-15.2,4.6-15.2,8.8,4.3,9.1,12.7S546.4,795.5,541.8,799.4Z" transform="translate(-16.4 -14.3)"/><path class="cls-4" d="M542.2,799.4s-4.2-16.3-3-23.3" transform="translate(-16.4 -14.3)"/><path class="cls-4" d="M527.3,748s-6.4,3.5-13.8-4-7.3-14-7.3-14,9.3-3,15.4,2.7S527.7,742,527.3,748Z" transform="translate(-16.4 -14.3)"/><path class="cls-4" d="M527.5,747.7s-14.4-8.7-18.4-14.6" transform="translate(-16.4 -14.3)"/><path class="cls-4" d="M527.3,770.9s-6.4,3.6-13.8-3.9-7.3-14.2-7.3-14.2,9.3-3,15.4,2.8S527.7,764.9,527.3,770.9Z" transform="translate(-16.4 -14.3)"/><path class="cls-4" d="M527.5,770.6s-14.4-8.7-18.4-14.6" transform="translate(-16.4 -14.3)"/><path class="cls-4" d="M526.4,794.6s-6.4,3.6-13.8-3.9-7.3-14.1-7.3-14.1,9.3-3,15.3,2.7S526.8,788.7,526.4,794.6Z" transform="translate(-16.4 -14.3)"/><path class="cls-4" d="M526.5,794.3s-14.3-8.7-18.3-14.5" transform="translate(-16.4 -14.3)"/><path class="cls-4" d="M533.2,758.6s-3-6.7,5.2-13.4,14.6-6,14.6-6,2.2,9.5-4,15S539.1,759.6,533.2,758.6Z" transform="translate(-16.4 -14.3)"/><path class="cls-4" d="M533.5,758.8s9.9-13.6,16.1-17" transform="translate(-16.4 -14.3)"/><path class="cls-4" d="M523.6,732.5s-4.4,5.8-14.1,1.9-12.4-9.9-12.4-9.9,7.3-6.5,15.1-3.7S521.6,726.8,523.6,732.5Z" transform="translate(-16.4 -14.3)"/><path class="cls-4" d="M523.7,732.1S507,730,501,726.2" transform="translate(-16.4 -14.3)"/><path class="cls-4" d="M513.4,717.5s-3.6,6.3-13.7,3.6-13.6-8.3-13.6-8.3,6.4-7.3,14.6-5.5S510.8,712.1,513.4,717.5Z" transform="translate(-16.4 -14.3)"/><path class="cls-4" d="M513.4,717.1s-16.8-.1-23.2-3.1" transform="translate(-16.4 -14.3)"/><path class="cls-4" d="M466.5,683.1s-1.6,7.2-12.1,7.7-15.4-3.9-15.4-3.9,3.9-8.9,12.2-9.7S462.3,678.8,466.5,683.1Z" transform="translate(-16.4 -14.3)"/><path class="cls-4" d="M466.3,682.8s-16,5-23,4.1" transform="translate(-16.4 -14.3)"/><path class="cls-4" d="M453.2,675s-2.4,6.9-12.9,6.1-14.8-5.7-14.8-5.7,5-8.4,13.3-8.1S449.6,670.3,453.2,675Z" transform="translate(-16.4 -14.3)"/><path class="cls-4" d="M453.1,674.7s-16.5,3-23.4,1.2" transform="translate(-16.4 -14.3)"/><path class="cls-4" d="M433.9,661.5s-5.6,4.7-14.2-1.2-9.9-12.4-9.9-12.4,8.6-4.8,15.6-.3S433.2,655.6,433.9,661.5Z" transform="translate(-16.4 -14.3)"/><path class="cls-4" d="M434,661.2s-15.8-5.8-20.8-10.8" transform="translate(-16.4 -14.3)"/><path class="cls-4" d="M447.5,664s-6.5-.1-9.1-9.2.3-14.3.3-14.3,8.6,1.8,11,9S450.5,659.6,447.5,664Z" transform="translate(-16.4 -14.3)"/><path class="cls-4" d="M447.8,663.9s-7.6-13.3-8.2-19.6" transform="translate(-16.4 -14.3)"/><path class="cls-4" d="M464,677.9s-6.5-.1-9.1-9.2.3-14.3.3-14.3,8.6,1.8,11,9S467,673.5,464,677.9Z" transform="translate(-16.4 -14.3)"/><path class="cls-4" d="M464.3,677.8s-7.6-13.3-8.2-19.6" transform="translate(-16.4 -14.3)"/><path class="cls-4" d="M453.7,594.7s-5.9-3.1-4.1-12.4,6.6-12.6,6.6-12.6,6.9,5.4,5.8,12.9S458.3,592,453.7,594.7Z" transform="translate(-16.4 -14.3)"/><path class="cls-4" d="M453.9,594.6s-.9-15.2,1.4-21.2" transform="translate(-16.4 -14.3)"/><path class="cls-4" d="M456.4,611.7s-4.2-5.1,1.1-13,11-9,11-9,4.3,7.7.3,14.2S461.7,611.1,456.4,611.7Z" transform="translate(-16.4 -14.3)"/><path class="cls-4" d="M456.7,611.8s5.2-14.4,9.5-19" transform="translate(-16.4 -14.3)"/><path class="cls-4" d="M462.2,629.4s-4.2-5,1-12.9,11.1-9.1,11.1-9.1,4.2,7.8.3,14.2S467.5,628.8,462.2,629.4Z" transform="translate(-16.4 -14.3)"/><path class="cls-4" d="M462.5,629.6s5.2-14.5,9.5-19" transform="translate(-16.4 -14.3)"/><path class="cls-4" d="M470.9,652.8s-5.6-3.5-3.2-12.7,7.6-12.1,7.6-12.1,6.5,6,4.8,13.3S475.7,650.4,470.9,652.8Z" transform="translate(-16.4 -14.3)"/><path class="cls-4" d="M471.3,652.8s.1-15.3,2.8-21.1" transform="translate(-16.4 -14.3)"/><path class="cls-4" d="M446.7,618.1s-6.5-.8-8.2-10.2,1.8-14.1,1.8-14.1,8.4,2.7,9.9,10.1S450.1,614,446.7,618.1Z" transform="translate(-16.4 -14.3)"/><path class="cls-4" d="M446.9,618s-6.1-14-6.1-20.4" transform="translate(-16.4 -14.3)"/><path class="cls-4" d="M486.6,673.7s-6.6-.6-8.5-9.9,1.4-14.2,1.4-14.2,8.5,2.4,10.3,9.7S489.9,669.4,486.6,673.7Z" transform="translate(-16.4 -14.3)"/><path class="cls-4" d="M486.9,673.5s-6.6-13.7-6.9-20.1" transform="translate(-16.4 -14.3)"/><path class="cls-4" d="M501.5,674.6s-4.3-4.9.7-13,10.8-9.4,10.8-9.4,4.4,7.6.7,14.2S506.8,673.8,501.5,674.6Z" transform="translate(-16.4 -14.3)"/><path class="cls-4" d="M501.8,674.7s4.7-14.6,9-19.3" transform="translate(-16.4 -14.3)"/><path class="cls-4" d="M502.9,694.6s-3.3-5.7,3.3-12.6,12.4-7,12.4-7,2.9,8.3-2.1,14S508.3,694.9,502.9,694.6Z" transform="translate(-16.4 -14.3)"/><path class="cls-4" d="M503.2,694.8s7.5-13.3,12.6-17.1" transform="translate(-16.4 -14.3)"/><path class="cls-4" d="M497,681.7s-7.2,1.1-11.5-8.5-1.9-15.8-1.9-15.8,9.8.5,13.4,8S499.6,676.3,497,681.7Z" transform="translate(-16.4 -14.3)"/><path class="cls-4" d="M497.3,681.5s-10.4-13.2-12-20.1" transform="translate(-16.4 -14.3)"/><path class="cls-4" d="M478.8,674s-5.7,4.5-14.1-1.7-9.4-12.8-9.4-12.8,8.7-4.4,15.5.3S478.4,668.1,478.8,674Z" transform="translate(-16.4 -14.3)"/><path class="cls-4" d="M479,673.7s-15.5-6.4-20.4-11.6" transform="translate(-16.4 -14.3)"/><path class="cls-4" d="M464.1,647.8s-3.8,6.2-13.9,3.2-13.2-8.8-13.2-8.8,6.6-7.1,14.7-5S461.7,642.3,464.1,647.8Z" transform="translate(-16.4 -14.3)"/><path class="cls-4" d="M464.3,647.5s-16.9-.7-23.2-3.9" transform="translate(-16.4 -14.3)"/><path class="cls-4" d="M448.4,629.6s-4.9,5.3-14.3.5S422.8,619,422.8,619s7.9-5.8,15.4-2.2S447.1,623.7,448.4,629.6Z" transform="translate(-16.4 -14.3)"/><path class="cls-4" d="M448.5,629.2s-16.4-3.8-22-8.1" transform="translate(-16.4 -14.3)"/><path class="cls-4" d="M434.9,611.2s-6,4.2-14-2.6-8.6-13.3-8.6-13.3,8.9-3.9,15.4,1.2S434.8,605.2,434.9,611.2Z" transform="translate(-16.4 -14.3)"/><path class="cls-4" d="M435,610.9s-15.1-7.3-19.7-12.7" transform="translate(-16.4 -14.3)"/><path class="cls-4" d="M449,595.8s-5.9,4.3-14.1-2.2-9-13.2-9-13.2,8.8-4.1,15.5.8S448.8,589.8,449,595.8Z" transform="translate(-16.4 -14.3)"/><path class="cls-4" d="M449.1,595.4s-15.3-6.8-20-12.1" transform="translate(-16.4 -14.3)"/><path class="cls-4" d="M432,696.4s-6.6-3.2-4.8-13.5,7.3-14.1,7.3-14.1,7.8,5.8,6.7,14S437.1,693.3,432,696.4Z" transform="translate(-16.4 -14.3)"/><path class="cls-4" d="M432.3,696.3s-1.2-16.7,1.3-23.4" transform="translate(-16.4 -14.3)"/><path class="cls-4" d="M437,715.2s-4.9-5.4.8-14.2,12-10.3,12-10.3,5,8.3.8,15.4S443,714.4,437,715.2Z" transform="translate(-16.4 -14.3)"/><path class="cls-4" d="M437.4,715.4s5.3-16,10.1-21.2" transform="translate(-16.4 -14.3)"/><path class="cls-4" d="M457.1,736.7s-7.1-1.5-7.8-12,3.6-15.5,3.6-15.5,9,3.8,9.9,12S461.4,732.5,457.1,736.7Z" transform="translate(-16.4 -14.3)"/><path class="cls-4" d="M457.5,736.6s-5.3-16-4.5-23" transform="translate(-16.4 -14.3)"/><path class="cls-4" d="M472.3,754s-7.1-1.4-7.8-11.9,3.6-15.5,3.6-15.5,9,3.8,9.9,12.1S476.6,749.8,472.3,754Z" transform="translate(-16.4 -14.3)"/><path class="cls-4" d="M472.7,754s-5.3-15.9-4.5-23" transform="translate(-16.4 -14.3)"/><path class="cls-4" d="M486,771.3s-7.2-1.4-7.9-11.9,3.6-15.5,3.6-15.5,9,3.8,9.9,12.1S490.2,767.1,486,771.3Z" transform="translate(-16.4 -14.3)"/><path class="cls-4" d="M486.3,771.2s-5.2-16-4.5-23" transform="translate(-16.4 -14.3)"/><path class="cls-4" d="M493.5,744s-6.1-4.1-2.7-14.1,9.3-12.9,9.3-12.9,6.8,6.9,4.5,14.9S498.9,741.7,493.5,744Z" transform="translate(-16.4 -14.3)"/><path class="cls-4" d="M493.7,744s1.3-16.8,4.7-23" transform="translate(-16.4 -14.3)"/><path class="cls-4" d="M497,758.6s-5.2-5.1-.3-14.3S508,733.1,508,733.1s5.7,8,2,15.5S502.9,757.3,497,758.6Z" transform="translate(-16.4 -14.3)"/><path class="cls-4" d="M497.4,758.7s4-16.3,8.4-21.9" transform="translate(-16.4 -14.3)"/><path class="cls-4" d="M501.6,783.4s-5.3-5.1-.3-14.3,11.3-11.2,11.3-11.2,5.6,8,1.9,15.5S507.4,782,501.6,783.4Z" transform="translate(-16.4 -14.3)"/><path class="cls-4" d="M501.9,783.5s4.1-16.4,8.5-21.9" transform="translate(-16.4 -14.3)"/><path class="cls-4" d="M489.2,746.2s-6.4,3.6-13.8-3.9-7.3-14.1-7.3-14.1,9.3-3,15.4,2.7S489.6,740.3,489.2,746.2Z" transform="translate(-16.4 -14.3)"/><path class="cls-4" d="M489.4,745.9S475,737.3,471,731.4" transform="translate(-16.4 -14.3)"/><path class="cls-4" d="M428.5,696.4s-5,5.3-14.3.5-11.3-11.1-11.3-11.1,7.8-5.8,15.4-2.2S427.1,690.6,428.5,696.4Z" transform="translate(-16.4 -14.3)"/><path class="cls-4" d="M428.6,696s-16.4-3.8-22-8.1" transform="translate(-16.4 -14.3)"/><path class="cls-4" d="M416.9,701.3s-3.2,6.6-13.5,4.8-14.1-7.4-14.1-7.4,5.8-7.8,14.1-6.6S413.8,696.2,416.9,701.3Z" transform="translate(-16.4 -14.3)"/><path class="cls-4" d="M416.8,701s-16.7,1.2-23.3-1.3" transform="translate(-16.4 -14.3)"/><path class="cls-4" d="M429.5,715.1s-3.2,6.6-13.5,4.8-14.1-7.3-14.1-7.3,5.8-7.8,14.1-6.7S426.4,710,429.5,715.1Z" transform="translate(-16.4 -14.3)"/><path class="cls-4" d="M429.4,714.8s-16.7,1.2-23.4-1.3" transform="translate(-16.4 -14.3)"/><path class="cls-4" d="M442.4,729.6s-3.2,6.6-13.5,4.7-14.1-7.3-14.1-7.3,5.8-7.8,14.1-6.6S439.3,724.4,442.4,729.6Z" transform="translate(-16.4 -14.3)"/><path class="cls-4" d="M442.4,729.2s-16.8,1.2-23.5-1.3" transform="translate(-16.4 -14.3)"/><path class="cls-4" d="M413.1,733.5s-3.2,6.6-13.5,4.8-14.2-7.3-14.2-7.3,5.9-7.8,14.1-6.7S410,728.4,413.1,733.5Z" transform="translate(-16.4 -14.3)"/><path class="cls-4" d="M413,733.2s-16.7,1.2-23.4-1.3" transform="translate(-16.4 -14.3)"/><path class="cls-4" d="M433,740.9s-1.3,7.6-12.2,8.6-16.4-3.3-16.4-3.3,3.6-9.5,12.3-10.7S428.4,736.6,433,740.9Z" transform="translate(-16.4 -14.3)"/><path class="cls-4" d="M432.9,740.6s-16.6,6-24.1,5.4" transform="translate(-16.4 -14.3)"/><path class="cls-4" d="M453.4,754.6s-1.8,7.1-12.4,7.2-15.2-4.6-15.2-4.6,4.3-8.8,12.7-9.1S449.5,750.1,453.4,754.6Z" transform="translate(-16.4 -14.3)"/><path class="cls-4" d="M453.4,754.3s-16.3,4.2-23.3,3" transform="translate(-16.4 -14.3)"/><path class="cls-4" d="M476.8,768.1s-3.2,6.6-13.5,4.7-14.1-7.3-14.1-7.3,5.8-7.8,14.1-6.6S473.7,763,476.8,768.1Z" transform="translate(-16.4 -14.3)"/><path class="cls-4" d="M476.7,767.8s-16.7,1.2-23.4-1.3" transform="translate(-16.4 -14.3)"/><path class="cls-4" d="M494.7,783.1s-2.8,6.8-13.2,5.5-14.5-6.5-14.5-6.5,5.4-8.1,13.7-7.4S491.3,778.1,494.7,783.1Z" transform="translate(-16.4 -14.3)"/><path class="cls-4" d="M494.6,782.7s-16.6,2.3-23.5.1" transform="translate(-16.4 -14.3)"/><path class="cls-4" d="M518.8,810.6s-3.2,6.6-13.5,4.7-14.1-7.3-14.1-7.3,5.8-7.8,14.1-6.6S515.7,805.4,518.8,810.6Z" transform="translate(-16.4 -14.3)"/><path class="cls-4" d="M518.8,810.2s-16.8,1.2-23.5-1.2" transform="translate(-16.4 -14.3)"/><path class="cls-4" d="M537.5,811.1s1.7-9.1,15-10.2,19.8,4.3,19.8,4.3-4.7,11.5-15.2,12.8S543,816.4,537.5,811.1Z" transform="translate(-16.4 -14.3)"/><path class="cls-4" d="M537.6,811.5s20.3-6.9,29.3-6" transform="translate(-16.4 -14.3)"/><path class="cls-4" d="M449.1,747s-9.2,1.7-15-10.3-3.1-20-3.1-20,12.4.1,17.4,9.5S452,740,449.1,747Z" transform="translate(-16.4 -14.3)"/><path class="cls-4" d="M449.4,746.7s-13.7-16.3-16.2-25" transform="translate(-16.4 -14.3)"/><path class="cls-4" d="M413,722.8s-7,3.3-14.3-5.1-6.7-15.5-6.7-15.5,10-2.5,16,4S413.9,716.5,413,722.8Z" transform="translate(-16.4 -14.3)"/><path class="cls-4" d="M413.2,722.5s-14.6-10.3-18.4-16.7" transform="translate(-16.4 -14.3)"/><path class="cls-4" d="M548.7,798s1.7-9.1,15-10.2,19.8,4.4,19.8,4.4-4.7,11.5-15.2,12.7S554.2,803.3,548.7,798Z" transform="translate(-16.4 -14.3)"/><path class="cls-4" d="M548.9,798.5s20.2-6.9,29.2-6.1" transform="translate(-16.4 -14.3)"/><path class="cls-4" d="M590.8,749.7s1.7-9.1,15-10.2,19.7,4.3,19.7,4.3-4.6,11.5-15.1,12.8S596.2,755,590.8,749.7Z" transform="translate(-16.4 -14.3)"/><path class="cls-4" d="M590.9,750.1s20.2-6.9,29.2-6.1" transform="translate(-16.4 -14.3)"/><path class="cls-4" d="M619.6,720.1s1.7-9.1,15-10.2,19.7,4.3,19.7,4.3-4.6,11.5-15.1,12.8S625,725.4,619.6,720.1Z" transform="translate(-16.4 -14.3)"/><path class="cls-4" d="M619.7,720.5s20.2-6.8,29.2-6" transform="translate(-16.4 -14.3)"/><path class="cls-4" d="M571.7,772.3s1.7-9.2,15-10.2,19.8,4.3,19.8,4.3-4.7,11.5-15.2,12.8S577.2,777.6,571.7,772.3Z" transform="translate(-16.4 -14.3)"/><path class="cls-4" d="M571.9,772.7s20.2-7,29.2-6.1" transform="translate(-16.4 -14.3)"/><path class="cls-4" d="M509.9,796.4s-3.1,6.7-13.4,4.9-14.2-7.1-14.2-7.1,5.7-7.9,14-6.8S506.8,791.3,509.9,796.4Z" transform="translate(-16.4 -14.3)"/><path class="cls-4" d="M509.9,796.1s-16.8,1.4-23.4-1" transform="translate(-16.4 -14.3)"/><path class="cls-4" d="M482.6,774s-3.2,6.5-13.5,4.7-14.1-7.3-14.1-7.3,5.8-7.8,14.1-6.6S479.5,768.8,482.6,774Z" transform="translate(-16.4 -14.3)"/><path class="cls-4" d="M482.6,773.6s-16.8,1.2-23.4-1.3" transform="translate(-16.4 -14.3)"/><path class="cls-4" d="M464.6,759s-3.1,6.6-13.4,4.7-14.2-7.3-14.2-7.3,5.9-7.8,14.1-6.6S461.6,753.9,464.6,759Z" transform="translate(-16.4 -14.3)"/><path class="cls-4" d="M464.6,758.6s-16.8,1.2-23.4-1.2" transform="translate(-16.4 -14.3)"/><path class="cls-4" d="M438.7,742.2s.3,7.3-9.8,10.4-15.9,0-15.9,0,1.6-9.6,9.5-12.4S433.6,739.1,438.7,742.2Z" transform="translate(-16.4 -14.3)"/><path class="cls-4" d="M438.5,741.9s-14.4,8.8-21.4,9.7" transform="translate(-16.4 -14.3)"/><path class="cls-4" d="M419.6,734.3s-.8,7.3-11.2,8.9-15.8-2.2-15.8-2.2,2.9-9.3,11.1-10.9S414.9,730.5,419.6,734.3Z" transform="translate(-16.4 -14.3)"/><path class="cls-4" d="M419.4,734s-15.5,6.7-22.6,6.5" transform="translate(-16.4 -14.3)"/><path class="cls-4" d="M517.4,803.9s-6.8-2.8-5.4-13.2,6.5-14.5,6.5-14.5,8.1,5.4,7.4,13.7S522.4,800.6,517.4,803.9Z" transform="translate(-16.4 -14.3)"/><path class="cls-4" d="M517.8,803.9s-2.1-16.7,0-23.5" transform="translate(-16.4 -14.3)"/><path class="cls-4" d="M499.1,774.3s-5.3-5.1-.3-14.3,11.3-11.2,11.3-11.2,5.6,8,2,15.5S505,773,499.1,774.3Z" transform="translate(-16.4 -14.3)"/><path class="cls-4" d="M499.5,774.4s4-16.4,8.4-21.9" transform="translate(-16.4 -14.3)"/><path class="cls-4" d="M441.1,725.7s-5.3-5.1-.3-14.3,11.3-11.2,11.3-11.2,5.6,8,1.9,15.5S446.9,724.4,441.1,725.7Z" transform="translate(-16.4 -14.3)"/><path class="cls-4" d="M441.4,725.8s4.1-16.4,8.5-21.9" transform="translate(-16.4 -14.3)"/><path class="cls-4" d="M433.8,708.4s-5.3-5-.3-14.3S444.8,683,444.8,683s5.6,7.9,1.9,15.4S439.6,707.1,433.8,708.4Z" transform="translate(-16.4 -14.3)"/><path class="cls-4" d="M434.1,708.5s4.1-16.3,8.5-21.9" transform="translate(-16.4 -14.3)"/><path class="cls-4" d="M466.8,641.7s-5.3-5.1-.3-14.3,11.3-11.2,11.3-11.2,5.6,8,1.9,15.5S472.6,640.3,466.8,641.7Z" transform="translate(-16.4 -14.3)"/><path class="cls-4" d="M467.2,641.8s4-16.4,8.4-21.9" transform="translate(-16.4 -14.3)"/><path class="cls-4" d="M460.4,620.5s-5.3-5-.4-14.3,11.4-11.1,11.4-11.1,5.6,7.9,1.9,15.4S466.2,619.2,460.4,620.5Z" transform="translate(-16.4 -14.3)"/><path class="cls-4" d="M460.7,620.6s4.1-16.3,8.5-21.9" transform="translate(-16.4 -14.3)"/><path class="cls-4" d="M454.4,603.6s-5.3-5-.4-14.2,11.4-11.2,11.4-11.2,5.6,8,1.9,15.5S460.2,602.3,454.4,603.6Z" transform="translate(-16.4 -14.3)"/><path class="cls-4" d="M454.7,603.7s4.1-16.3,8.5-21.8" transform="translate(-16.4 -14.3)"/><path class="cls-4" d="M450.5,589s-6.9,2.7-13.2-5.6-5.5-15-5.5-15,9.5-1.8,14.9,4.6S451.6,583.1,450.5,589Z" transform="translate(-16.4 -14.3)"/><path class="cls-4" d="M450.7,588.7s-13.2-10.4-16.5-16.7" transform="translate(-16.4 -14.3)"/><path class="cls-4" d="M454.7,616.7s-6.8,2.7-13.2-5.6-5.5-14.9-5.5-14.9,9.6-1.8,14.9,4.6S455.8,610.8,454.7,616.7Z" transform="translate(-16.4 -14.3)"/><path class="cls-4" d="M454.9,616.4s-13.2-10.4-16.4-16.7" transform="translate(-16.4 -14.3)"/><path class="cls-4" d="M435.9,624.3s-6.8,2.7-13.2-5.6-5.5-14.9-5.5-14.9,9.6-1.9,14.9,4.6S437.1,618.4,435.9,624.3Z" transform="translate(-16.4 -14.3)"/><path class="cls-4" d="M436.1,624s-13.1-10.4-16.4-16.7" transform="translate(-16.4 -14.3)"/><path class="cls-4" d="M460.8,634s-6.9,2.8-13.2-5.6-5.6-14.9-5.6-14.9,9.6-1.8,14.9,4.6S461.9,628.1,460.8,634Z" transform="translate(-16.4 -14.3)"/><path class="cls-4" d="M461,633.7s-13.3-10.3-16.5-16.7" transform="translate(-16.4 -14.3)"/><path class="cls-4" d="M451.6,644.4s-6.8,2.7-13.1-5.5-5.6-14.9-5.6-14.9,9.6-1.9,14.9,4.6S452.8,638.5,451.6,644.4Z" transform="translate(-16.4 -14.3)"/><path class="cls-4" d="M451.8,644s-13.2-10.3-16.5-16.6" transform="translate(-16.4 -14.3)"/><path class="cls-4" d="M472.2,670.1s-6.8,2.8-13.2-5.5-5.5-14.9-5.5-14.9,9.5-1.9,14.9,4.5S473.4,664.3,472.2,670.1Z" transform="translate(-16.4 -14.3)"/><path class="cls-4" d="M472.4,669.8s-13.2-10.3-16.5-16.7" transform="translate(-16.4 -14.3)"/><path class="cls-4" d="M442.3,667.6s-3.4,6.5-13.6,4.3-13.9-7.8-13.9-7.8,6.1-7.6,14.3-6.2S439.4,662.4,442.3,667.6Z" transform="translate(-16.4 -14.3)"/><path class="cls-4" d="M442.3,667.2s-16.8.7-23.3-2" transform="translate(-16.4 -14.3)"/><path class="cls-4" d="M460.4,743.2s-5.3-5.1-.4-14.3,11.4-11.2,11.4-11.2,5.6,8,1.9,15.5S466.2,741.9,460.4,743.2Z" transform="translate(-16.4 -14.3)"/><path class="cls-4" d="M460.7,743.3s4.1-16.4,8.5-21.9" transform="translate(-16.4 -14.3)"/><path class="cls-4" d="M472.3,661.5s-5.3-5.1-.3-14.3S483.3,636,483.3,636s5.6,8,1.9,15.4S478.1,660.1,472.3,661.5Z" transform="translate(-16.4 -14.3)"/><path class="cls-4" d="M472.6,661.5s4.1-16.3,8.5-21.8" transform="translate(-16.4 -14.3)"/><path class="cls-4" d="M511,601.2s-5.3-5-.3-14.3S522,575.8,522,575.8s5.6,7.9,1.9,15.4S516.8,599.9,511,601.2Z" transform="translate(-16.4 -14.3)"/><path class="cls-4" d="M511.3,601.3s4.1-16.3,8.5-21.9" transform="translate(-16.4 -14.3)"/><path class="cls-4" d="M505.9,573.6s-5.3-5.1-.3-14.3,11.3-11.2,11.3-11.2,5.6,8,2,15.5S511.8,572.2,505.9,573.6Z" transform="translate(-16.4 -14.3)"/><path class="cls-4" d="M506.3,573.6s4-16.4,8.4-21.9" transform="translate(-16.4 -14.3)"/><path class="cls-4" d="M523.7,620.1s-5.3-5.1-.4-14.3,11.4-11.2,11.4-11.2,5.6,8,2,15.5S529.6,618.8,523.7,620.1Z" transform="translate(-16.4 -14.3)"/><path class="cls-4" d="M524,620.2s4.1-16.3,8.5-21.9" transform="translate(-16.4 -14.3)"/><path class="cls-4" d="M546.2,622s-1.8-7.1,7.4-12.3,15.5-3.5,15.5-3.5.6,9.8-6.5,14.2S551.9,623.9,546.2,622Z" transform="translate(-16.4 -14.3)"/><path class="cls-4" d="M546.5,622.2s12-11.7,18.7-14" transform="translate(-16.4 -14.3)"/><path class="cls-4" d="M563.2,597.4s.3-7.3,10.6-9.6,15.8,1.3,15.8,1.3-2.3,9.4-10.4,11.5S568,600.9,563.2,597.4Z" transform="translate(-16.4 -14.3)"/><path class="cls-4" d="M563.3,597.6s15-7.6,22.1-7.9" transform="translate(-16.4 -14.3)"/><path class="cls-4" d="M590.6,567.3s-.3-7.3,9.6-10.6,15.9-.2,15.9-.2-1.4,9.6-9.3,12.5S595.7,570.4,590.6,567.3Z" transform="translate(-16.4 -14.3)"/><path class="cls-4" d="M590.8,567.6s14.2-9,21.2-10" transform="translate(-16.4 -14.3)"/><path class="cls-4" d="M604.9,630.5s-1.8-7.1,7.3-12.2,15.4-3.5,15.4-3.5.6,9.8-6.5,14.2S610.5,632.5,604.9,630.5Z" transform="translate(-16.4 -14.3)"/><path class="cls-4" d="M605.2,630.8s12-11.8,18.7-14.1" transform="translate(-16.4 -14.3)"/><path class="cls-4" d="M596,644.6s-1.8-7.1,7.3-12.3,15.4-3.5,15.4-3.5.6,9.8-6.5,14.2S601.6,646.5,596,644.6Z" transform="translate(-16.4 -14.3)"/><path class="cls-4" d="M596.2,644.8s12.1-11.7,18.8-14.1" transform="translate(-16.4 -14.3)"/><path class="cls-4" d="M588,660.4s-1.7-7.1,7.3-12.3,15.5-3.4,15.5-3.4.5,9.7-6.6,14.1S593.6,662.4,588,660.4Z" transform="translate(-16.4 -14.3)"/><path class="cls-4" d="M588.2,660.7S600.3,649,607,646.6" transform="translate(-16.4 -14.3)"/><path class="cls-4" d="M507.9,717.1s-1.8-7,7.3-12.3,15.5-3.4,15.5-3.4.5,9.7-6.5,14.1S513.6,719.1,507.9,717.1Z" transform="translate(-16.4 -14.3)"/><path class="cls-4" d="M508.2,717.4s12-11.7,18.7-14.1" transform="translate(-16.4 -14.3)"/><path class="cls-4" d="M556.8,715.7s-1.8-7.1,7.2-12.3,15.5-3.5,15.5-3.5.6,9.8-6.5,14.2S562.4,717.6,556.8,715.7Z" transform="translate(-16.4 -14.3)"/><path class="cls-4" d="M557.1,715.9s12-11.7,18.7-14.1" transform="translate(-16.4 -14.3)"/><path class="cls-4" d="M529.6,769s-1.9-7.1,7.3-12.3,15.4-3.4,15.4-3.4.6,9.7-6.5,14.1S535.3,771,529.6,769Z" transform="translate(-16.4 -14.3)"/><path class="cls-4" d="M529.9,769.3s12-11.8,18.7-14.1" transform="translate(-16.4 -14.3)"/><path class="cls-4" d="M529.6,783.5s-1.8-7.1,7.3-12.3,15.5-3.4,15.5-3.4.5,9.7-6.6,14.1S535.3,785.4,529.6,783.5Z" transform="translate(-16.4 -14.3)"/><path class="cls-4" d="M529.9,783.7s12-11.7,18.7-14.1" transform="translate(-16.4 -14.3)"/><path class="cls-4" d="M510,711.2s-5.6-4.7-1.2-14.3,10.6-11.8,10.6-11.8,6.1,7.6,2.9,15.3S515.8,709.5,510,711.2Z" transform="translate(-16.4 -14.3)"/><path class="cls-4" d="M510.4,711.2s3-16.5,7-22.3" transform="translate(-16.4 -14.3)"/><path class="cls-4" d="M505.6,686.5s-5.6-4.7-1.2-14.2S515,660.4,515,660.4s6.1,7.6,2.9,15.4S511.3,684.8,505.6,686.5Z" transform="translate(-16.4 -14.3)"/><path class="cls-4" d="M506,686.6s3-16.5,7-22.3" transform="translate(-16.4 -14.3)"/><path class="cls-4" d="M667.2,689.7s-.4-7.3,9.5-10.7,15.9-.5,15.9-.5-1.3,9.7-9.1,12.7S672.4,692.7,667.2,689.7Z" transform="translate(-16.4 -14.3)"/><path class="cls-4" d="M667.4,690s14.1-9.2,21.1-10.3" transform="translate(-16.4 -14.3)"/><path class="cls-4" d="M654,702.8s3.9-7.2,15.4-4.7,15.4,8.9,15.4,8.9-6.8,8.5-16.1,6.8S657.2,708.7,654,702.8Z" transform="translate(-16.4 -14.3)"/><path class="cls-4" d="M654,703.2s18.9-.5,26.2,2.6" transform="translate(-16.4 -14.3)"/><path class="cls-2" d="M663.5,691.7s-7.6-3.8-5.3-15.9,8.9-16.3,8.9-16.3,9,6.9,7.5,16.6S669.6,688.1,663.5,691.7Z" transform="translate(-16.4 -14.3)"/><path class="cls-4" d="M663.9,691.6s-1.1-19.6,1.9-27.2" transform="translate(-16.4 -14.3)"/><path class="cls-4" d="M640.2,707.6s-7.6-3.8-5.3-15.8,8.8-16.3,8.8-16.3,9,6.9,7.5,16.5S646.2,704.2,640.2,707.6Z" transform="translate(-16.4 -14.3)"/><path class="cls-4" d="M640.6,707.6s-1.1-19.5,1.9-27.2" transform="translate(-16.4 -14.3)"/><path class="cls-4" d="M641.1,680s-7.6-3.8-5.2-15.8,8.7-16.4,8.7-16.4,9,6.9,7.5,16.6S647.2,676.5,641.1,680Z" transform="translate(-16.4 -14.3)"/><path class="cls-4" d="M641.6,679.9s-1.2-19.5,1.8-27.2" transform="translate(-16.4 -14.3)"/><path class="cls-4" d="M627.6,705.1s-8.4-1.5-9.6-13.6,3.6-18.2,3.6-18.2,10.6,4,12,13.6S632.4,699.9,627.6,705.1Z" transform="translate(-16.4 -14.3)"/><path class="cls-4" d="M628,704.9s-6.8-18.4-6.1-26.6" transform="translate(-16.4 -14.3)"/><path class="cls-4" d="M618,716s-8.4-1.4-9.7-13.6,3.6-18.2,3.6-18.2,10.7,4,12.1,13.7S622.8,710.9,618,716Z" transform="translate(-16.4 -14.3)"/><path class="cls-4" d="M618.4,715.9s-6.9-18.5-6.2-26.7" transform="translate(-16.4 -14.3)"/><path class="cls-4" d="M608.3,731.9s-8.5-1.4-9.7-13.6,3.6-18.2,3.6-18.2,10.6,4,12,13.7S613,726.8,608.3,731.9Z" transform="translate(-16.4 -14.3)"/><path class="cls-4" d="M608.6,731.7s-6.7-18.4-6.1-26.6" transform="translate(-16.4 -14.3)"/><path class="cls-4" d="M567,773.5s-8.4-1.4-9.6-13.6,3.6-18.2,3.6-18.2,10.6,4,12,13.7S571.8,768.4,567,773.5Z" transform="translate(-16.4 -14.3)"/><path class="cls-4" d="M567.4,773.3s-6.9-18.4-6.2-26.6" transform="translate(-16.4 -14.3)"/><path class="cls-4" d="M583.8,756.3s-8.4-1.4-9.6-13.6,3.5-18.2,3.5-18.2,10.6,4,12,13.6S588.6,751.2,583.8,756.3Z" transform="translate(-16.4 -14.3)"/><path class="cls-4" d="M584.2,756.1s-6.7-18.4-6.1-26.6" transform="translate(-16.4 -14.3)"/><path class="cls-4" d="M588.7,723s-8.2,2.3-14.5-8.2-4.4-18-4.4-18,11.3-.9,16.6,7.2S590.9,716.3,588.7,723Z" transform="translate(-16.4 -14.3)"/><path class="cls-4" d="M589.1,722.7s-14-13.8-16.9-21.5" transform="translate(-16.4 -14.3)"/><path class="cls-4" d="M587.6,734.1s-3.5-7.7,5.8-15.6,17.1-7.2,17.1-7.2,2.7,11-4.5,17.6S594.5,735.2,587.6,734.1Z" transform="translate(-16.4 -14.3)"/><path class="cls-4" d="M588,734.4s11.4-16,18.6-20.1" transform="translate(-16.4 -14.3)"/><path class="cls-4" d="M474.2,686.1s1.1,7.2-8.4,11.5-15.8,1.9-15.8,1.9.4-9.7,7.9-13.4S468.8,683.6,474.2,686.1Z" transform="translate(-16.4 -14.3)"/><path class="cls-4" d="M474,685.8s-13.2,10.5-20.1,12.2" transform="translate(-16.4 -14.3)"/><path class="cls-4" d="M492.4,691.6s-.6,7.3-11,9.2-15.7-1.9-15.7-1.9,2.7-9.4,10.8-11.2S487.7,687.9,492.4,691.6Z" transform="translate(-16.4 -14.3)"/><path class="cls-4" d="M492.2,691.3s-15.3,7-22.3,7" transform="translate(-16.4 -14.3)"/><path class="cls-4" d="M502.5,705.4s-3.6,6.3-13.8,3.7-13.5-8.3-13.5-8.3,6.4-7.4,14.5-5.6S499.8,700,502.5,705.4Z" transform="translate(-16.4 -14.3)"/><path class="cls-4" d="M502.5,705s-16.8,0-23.2-3" transform="translate(-16.4 -14.3)"/><path class="cls-4" d="M452.5,673.4s-7.3-.7-9.1-11,1.9-15.8,1.9-15.8,9.4,2.8,11.2,10.9S456.2,668.7,452.5,673.4Z" transform="translate(-16.4 -14.3)"/><path class="cls-4" d="M452.8,673.3s-6.9-15.4-6.9-22.4" transform="translate(-16.4 -14.3)"/><path class="cls-4" d="M477.9,686.5s-7.2,1.4-11.8-8.1-2.4-15.7-2.4-15.7,9.7.1,13.7,7.5S480.2,681,477.9,686.5Z" transform="translate(-16.4 -14.3)"/><path class="cls-4" d="M478.1,686.3s-10.8-12.9-12.7-19.7" transform="translate(-16.4 -14.3)"/><path class="cls-4" d="M570.8,680.3s-7.6-3.6-5.4-15.6,8.6-16.5,8.6-16.5,9.1,6.9,7.6,16.5S576.8,676.8,570.8,680.3Z" transform="translate(-16.4 -14.3)"/><path class="cls-4" d="M571.2,680.3s-1.3-19.6,1.6-27.3" transform="translate(-16.4 -14.3)"/><path class="cls-4" d="M570.8,583.7s-6.5-3.5-4.3-13.7,7.8-13.9,7.8-13.9,7.6,6.1,6.1,14.4S576.1,580.8,570.8,583.7Z" transform="translate(-16.4 -14.3)"/><path class="cls-4" d="M571.2,583.6s-.7-16.8,2-23.3" transform="translate(-16.4 -14.3)"/><path class="cls-4" d="M559.4,595.1s-6.5-3.5-4.3-13.7,7.8-13.8,7.8-13.8,7.6,6,6.2,14.3S564.7,592.2,559.4,595.1Z" transform="translate(-16.4 -14.3)"/><path class="cls-4" d="M559.8,595.1s-.7-16.9,2-23.4" transform="translate(-16.4 -14.3)"/><path class="cls-4" d="M550.5,586.5s-5.5-4.8-.9-14.2,10.8-11.6,10.8-11.6,5.9,7.7,2.6,15.3S556.2,585,550.5,586.5Z" transform="translate(-16.4 -14.3)"/><path class="cls-4" d="M550.8,586.6s3.4-16.5,7.6-22.2" transform="translate(-16.4 -14.3)"/><path class="cls-4" d="M547.2,609.7s-7.3.6-11-9.2-.9-15.9-.9-15.9,9.7,1,12.9,8.7S550,604.5,547.2,609.7Z" transform="translate(-16.4 -14.3)"/><path class="cls-4" d="M547.5,609.5s-9.6-13.9-10.8-20.8" transform="translate(-16.4 -14.3)"/><path class="cls-4" d="M551.3,602.8s-5.5-4.8-.9-14.3S561.2,577,561.2,577s6,7.7,2.6,15.4S557.1,601.2,551.3,602.8Z" transform="translate(-16.4 -14.3)"/><path class="cls-4" d="M551.6,602.9s3.5-16.5,7.6-22.2" transform="translate(-16.4 -14.3)"/><path class="cls-4" d="M499.4,556.9s-5.8-5.5-.5-15.5,12.2-12.3,12.2-12.3,6.2,8.6,2.3,16.8S505.7,555.4,499.4,556.9Z" transform="translate(-16.4 -14.3)"/><path class="cls-4" d="M499.8,557s4.3-17.8,9-23.9" transform="translate(-16.4 -14.3)"/><path class="cls-4" d="M506,587.3s-6.9,2.6-13-5.9-5.2-15-5.2-15,9.7-1.6,14.8,4.9S507.3,581.5,506,587.3Z" transform="translate(-16.4 -14.3)"/><path class="cls-4" d="M506.2,587s-12.9-10.7-16-17.1" transform="translate(-16.4 -14.3)"/><path class="cls-4" d="M518.8,612.3s-4.5,5.7-14.2,1.6-12.1-10.4-12.1-10.4,7.4-6.2,15.2-3.3S517,606.6,518.8,612.3Z" transform="translate(-16.4 -14.3)"/><path class="cls-4" d="M518.9,611.9s-16.6-2.6-22.6-6.5" transform="translate(-16.4 -14.3)"/><path class="cls-4" d="M509.5,624.1s-3,6.6-13.3,5.1-14.3-6.9-14.3-6.9,5.6-7.9,13.9-7S506.3,619,509.5,624.1Z" transform="translate(-16.4 -14.3)"/><path class="cls-4" d="M509.5,623.7s-16.7,1.7-23.4-.7" transform="translate(-16.4 -14.3)"/><path class="cls-4" d="M521.6,631.3s-3,6.6-13.4,5.1-14.3-6.8-14.3-6.8,5.7-8,13.9-7.1S518.4,626.2,521.6,631.3Z" transform="translate(-16.4 -14.3)"/><path class="cls-4" d="M521.6,630.9s-16.8,1.6-23.5-.6" transform="translate(-16.4 -14.3)"/><path class="cls-4" d="M518.9,627.3s-7.3-.4-9.5-10.7,1.3-15.8,1.3-15.8,9.4,2.4,11.5,10.5S522.5,622.5,518.9,627.3Z" transform="translate(-16.4 -14.3)"/><path class="cls-4" d="M519.3,627.1s-7.6-15-7.8-22.1" transform="translate(-16.4 -14.3)"/><path class="cls-4" d="M502.3,617.9s-7.3-.3-9.5-10.6,1.4-15.9,1.4-15.9,9.4,2.5,11.5,10.5S505.9,613.1,502.3,617.9Z" transform="translate(-16.4 -14.3)"/><path class="cls-4" d="M502.7,617.8s-7.5-15-7.8-22.1" transform="translate(-16.4 -14.3)"/><path class="cls-4" d="M579.7,664.3s-7.7-3.8-5.4-15.8,8.6-16.5,8.6-16.5,9,6.9,7.6,16.5S585.7,660.7,579.7,664.3Z" transform="translate(-16.4 -14.3)"/><path class="cls-4" d="M580.1,664.2s-1.3-19.6,1.6-27.3" transform="translate(-16.4 -14.3)"/><path class="cls-4" d="M590.6,561.9s-5.5-4.8-.9-14.3S600.5,536,600.5,536s5.9,7.7,2.6,15.3S596.4,560.3,590.6,561.9Z" transform="translate(-16.4 -14.3)"/><path class="cls-4" d="M591,562s3.3-16.5,7.4-22.3" transform="translate(-16.4 -14.3)"/><path class="cls-4" d="M601.9,579.8s-2.3-6.9,6.5-12.8,15.2-4.5,15.2-4.5,1.2,9.6-5.5,14.5S607.7,581.4,601.9,579.8Z" transform="translate(-16.4 -14.3)"/><path class="cls-4" d="M602.2,580s11.3-12.5,17.7-15.3" transform="translate(-16.4 -14.3)"/><path class="cls-4" d="M583.5,586.4s3.8-7,14.9-4.6,15,8.6,15,8.6-6.7,8.3-15.6,6.6S586.6,592.1,583.5,586.4Z" transform="translate(-16.4 -14.3)"/><path class="cls-4" d="M583.5,586.8s18.3-.6,25.4,2.4" transform="translate(-16.4 -14.3)"/><path class="cls-4" d="M594.6,624.4s-8.6,0-11.8-11.8.5-18.5.5-18.5,11.1,2.2,14.1,11.4S598.4,618.6,594.6,624.4Z" transform="translate(-16.4 -14.3)"/><path class="cls-4" d="M594.9,624.2s-9.8-17-10.6-25.2" transform="translate(-16.4 -14.3)"/><path class="cls-4" d="M562.6,670.4s-6.9,1.2-11.3-7.9-2.2-15-2.2-15,9.4.1,13.1,7.2S564.8,665.1,562.6,670.4Z" transform="translate(-16.4 -14.3)"/><path class="cls-4" d="M562.8,670.1s-10.3-12.4-12-18.9" transform="translate(-16.4 -14.3)"/><path class="cls-4" d="M563.5,653.2s-6.9,1.2-11.2-7.9-2.2-15-2.2-15,9.3.2,13,7.2S565.8,647.9,563.5,653.2Z" transform="translate(-16.4 -14.3)"/><path class="cls-4" d="M563.8,653s-10.3-12.4-12-18.9" transform="translate(-16.4 -14.3)"/><path class="cls-4" d="M560.5,653.9s-1.8-7.1,7.3-12.3,15.5-3.5,15.5-3.5.5,9.8-6.6,14.2S566.2,655.8,560.5,653.9Z" transform="translate(-16.4 -14.3)"/><path class="cls-4" d="M560.8,654.1s12-11.7,18.8-14.1" transform="translate(-16.4 -14.3)"/></g></g></g><g id="Calque_8" data-name="Calque 8"><rect class="cls-5" x="0.4" y="0.4" width="1050.9" height="1050.89"/></g></svg>