<svg xmlns="http://www.w3.org/2000/svg" viewBox="0 0 1051.6 1051.6"><defs><style>.cls-1{fill:#723710;}.cls-2,.cls-4{fill:#00bf71;stroke:#435640;stroke-width:0.74px;}.cls-2,.cls-3,.cls-4{stroke-miterlimit:10;}.cls-3{fill:none;stroke:#723710;stroke-width:11.82px;}.cls-4{opacity:0;}</style></defs><g id="Calque_4" data-name="Calque 4"><g id="Calque_2" data-name="Calque 2"><g id="Calque_2-2" data-name="Calque 2-2"><path class="cls-1" d="M522.2,996.6l11.5-178.1,3.2-50c.3-4.7-7.1-4.7-7.4,0L518.2,946.6l-3.4,50C514.5,1001.4,521.9,1001.4,522.2,996.6Z" transform="translate(-16.4 -14.3)"/><path class="cls-1" d="M530,923.7A335.3,335.3,0,0,1,556.6,873c5-7.9,10.3-15.5,15.8-23a122.4,122.4,0,0,0,14.5-23.7c1.8-4.3-4.5-8.1-6.4-3.7a123.4,123.4,0,0,1-14.8,24.3c-5.6,7.7-11,15.5-16.1,23.6A347.5,347.5,0,0,0,523,921.9c-1.8,4.4,5.3,6.3,7.1,2Z" transform="translate(-16.4 -14.3)"/><path class="cls-2" d="M538.9,903.3s0-8.4,11.6-11.6,18.2.5,18.2.5-2.2,11-11.3,13.9S544.8,907.1,538.9,903.3Z" transform="translate(-16.4 -14.3)"/><path class="cls-2" d="M538.9,903.1s12.6-6.5,18.5-6.7" transform="translate(-16.4 -14.3)"/><path class="cls-2" d="M557.5,866.5s0-8.4,11.6-11.6,18.2.6,18.2.6-2.1,10.9-11.3,13.8S563.2,870.3,557.5,866.5Z" transform="translate(-16.4 -14.3)"/><path class="cls-2" d="M557.4,866.3s12.6-6.4,18.6-6.7" transform="translate(-16.4 -14.3)"/><path class="cls-2" d="M579.7,836.4s0-8.4,11.6-11.6,18.2.6,18.2.6-2.1,11-11.3,13.8S585.4,840.2,579.7,836.4Z" transform="translate(-16.4 -14.3)"/><path class="cls-2" d="M579.7,836.2s12.5-6.4,18.5-6.7" transform="translate(-16.4 -14.3)"/><path class="cls-2" d="M563.3,850.8s5.9-5.9.2-16.4-13.1-12.7-13.1-12.7-6.3,9.2-2.1,17.7S556.6,849.3,563.3,850.8Z" transform="translate(-16.4 -14.3)"/><path class="cls-2" d="M563.4,850.7s-4.1-13.5-8-18" transform="translate(-16.4 -14.3)"/><path class="cls-2" d="M533.7,796.8s-2.9-7.8,6.5-15,17.2-6.3,17.2-6.3,2,11-5.4,17.1S540.4,798.2,533.7,796.8Z" transform="translate(-16.4 -14.3)"/><path class="cls-2" d="M533.6,796.6s9.4-10.6,14.8-13" transform="translate(-16.4 -14.3)"/><path class="cls-2" d="M527.9,807.5s4-7.4-4.7-15.8-16.4-8.1-16.4-8.1-3.3,10.7,3.4,17.5S521.1,808.1,527.9,807.5Z" transform="translate(-16.4 -14.3)"/><path class="cls-2" d="M527.9,807.3s-7.9-11.6-13-14.8" transform="translate(-16.4 -14.3)"/><path class="cls-2" d="M519.7,906.5s4-7.4-4.7-15.7-16.3-8.2-16.3-8.2-3.3,10.8,3.3,17.5S512.8,907.1,519.7,906.5Z" transform="translate(-16.4 -14.3)"/><path class="cls-2" d="M519.8,906.3s-8-11.8-13.1-14.7" transform="translate(-16.4 -14.3)"/><path class="cls-2" d="M525.9,844.5s2.7-5.2-3.4-11a17.2,17.2,0,0,0-11.4-5.7s-2.3,7.5,2.4,12.3A12.4,12.4,0,0,0,525.9,844.5Z" transform="translate(-16.4 -14.3)"/><path class="cls-2" d="M525.9,844.4a47.2,47.2,0,0,0-9.2-10.3" transform="translate(-16.4 -14.3)"/><path class="cls-2" d="M528.5,873.1s-2.2-4.7,3.6-9.5a15.6,15.6,0,0,1,10.4-4.4,12,12,0,0,1-2.8,10.7A11,11,0,0,1,528.5,873.1Z" transform="translate(-16.4 -14.3)"/><path class="cls-2" d="M528.5,873a46.7,46.7,0,0,1,8.6-8.6" transform="translate(-16.4 -14.3)"/><path class="cls-2" d="M534.1,765.9s-2.2-4.8,3.5-9.6a15.6,15.6,0,0,1,10.4-4.4,12.1,12.1,0,0,1-2.7,10.8A11.2,11.2,0,0,1,534.1,765.9Z" transform="translate(-16.4 -14.3)"/><path class="cls-2" d="M534,765.8a40.4,40.4,0,0,1,8.9-8.6" transform="translate(-16.4 -14.3)"/><path class="cls-3" d="M524.7,923.9c0-10.6-6.9,84.4-6.1,73.6" transform="translate(-16.4 -14.3)"/></g></g></g><g id="Calque_8" data-name="Calque 8"><rect class="cls-4" x="0.4" y="0.4" width="1050.9" height="1050.89"/></g></svg>