<svg xmlns="http://www.w3.org/2000/svg" viewBox="0 0 1051.6 1051.6"><defs><style>.cls-1{fill:#99cb94;}.cls-1,.cls-3{stroke:#4d734c;stroke-width:0.75px;}.cls-1,.cls-3,.cls-4{stroke-miterlimit:10;}.cls-2{fill:#435640;}.cls-3{fill:none;}.cls-4{fill:#00bf71;stroke:#435640;stroke-width:0.74px;opacity:0;}</style></defs><g id="Calque_7" data-name="Calque 7"><path class="cls-1" d="M504.4,960.7s-10.2,53.8,10.6,53.2,24.6-44.1,19.6-52.9c0,0-17,14.5-17.7,21.8C515.2,980.9,510.6,962.9,504.4,960.7Z" transform="translate(-16.4 -14.3)"/><path class="cls-2" d="M509.8,973.1s7.9-12.4,10.2-12.4,7.9,8.6,8.5,13.9-6.6,15.4-9.2,15.5S509.8,973.1,509.8,973.1Z" transform="translate(-16.4 -14.3)"/><path class="cls-1" d="M515.5,1003.8c-2.5-2.8,1.2-21,1.2-21" transform="translate(-16.4 -14.3)"/><line class="cls-3" x1="500.3" y1="968.5" x2="501.2" y2="966.2"/></g><g id="Calque_8" data-name="Calque 8"><rect class="cls-4" x="0.4" y="0.4" width="1050.9" height="1050.89"/></g></svg>