<svg xmlns="http://www.w3.org/2000/svg" viewBox="0 0 1051.6 1051.6"><defs><style>.cls-1{fill:#435640;}.cls-2{fill:#8fba8e;}.cls-2,.cls-3,.cls-4{stroke:#435640;stroke-miterlimit:10;}.cls-2,.cls-3{stroke-width:0.78px;}.cls-3{fill:none;}.cls-4{fill:#00bf71;stroke-width:0.74px;opacity:0;}</style></defs><g id="Calque_5" data-name="Calque 5"><g id="Calque_2" data-name="Calque 2"><g id="Calque_2-2" data-name="Calque 2-2"><path class="cls-1" d="M528.2,995.3c-10.6-50.4-5.8-103.5,8.3-152.7A125.2,125.2,0,0,1,553,805c2.9-4.3-3.9-8.2-6.8-4.1-14.4,20.9-20.4,47.8-25.1,72.4a339.7,339.7,0,0,0-6.1,79.2,271.5,271.5,0,0,0,5.6,44.9C521.7,1002.3,529.2,1000.2,528.2,995.3Z" transform="translate(-16.4 -14.3)"/><path class="cls-2" d="M522.4,916.8s-1.5-9,10.4-14.3,19.6-2.4,19.6-2.4-.5,12.1-9.8,16.7S529,919.9,522.4,916.8Z" transform="translate(-16.4 -14.3)"/><path class="cls-3" d="M522.2,916.6s12.5-9,18.8-10.2" transform="translate(-16.4 -14.3)"/><path class="cls-2" d="M525.5,867.3s3.9-8.2-6-16.8-18.1-7.9-18.1-7.9-3.1,11.8,4.6,18.8S518.1,868.4,525.5,867.3Z" transform="translate(-16.4 -14.3)"/><path class="cls-3" d="M525.5,867.2s-9.4-12.2-15-15.3" transform="translate(-16.4 -14.3)"/></g></g></g><g id="Calque_8" data-name="Calque 8"><rect class="cls-4" x="0.4" y="0.4" width="1050.9" height="1050.89"/></g></svg>