<svg xmlns="http://www.w3.org/2000/svg" viewBox="0 0 17 64.23"><defs><style>.cls-1{fill:#435640;}.cls-2{fill:#8fba8e;}.cls-2,.cls-3{stroke:#435640;stroke-miterlimit:10;stroke-width:0.25px;}.cls-3{fill:none;}</style></defs><g id="Calque_2" data-name="Calque 2"><g id="Calque_2-2" data-name="Calque 2"><path class="cls-1" d="M8.85,62.67C5.46,46.57,7,29.59,11.51,13.86a40.1,40.1,0,0,1,5.27-12C17.7.49,15.53-.76,14.62.56,10,7.23,8.11,15.83,6.6,23.69A109.28,109.28,0,0,0,4.63,49,89.46,89.46,0,0,0,6.44,63.33c.33,1.58,2.74.91,2.41-.66Z"/><path class="cls-2" d="M7,37.58S6.52,34.7,10.33,33s6.28-.76,6.28-.76-.17,3.87-3.15,5.34S9.12,38.58,7,37.58Z"/><path class="cls-3" d="M6.94,37.52s4-2.87,6-3.27"/><path class="cls-2" d="M8,21.77s1.25-2.63-1.91-5.36S.31,13.87.31,13.87s-1,3.76,1.47,6S5.65,22.1,8,21.77Z"/><path class="cls-3" d="M8,21.72s-3-3.9-4.79-4.87"/></g></g></svg>